<svg xmlns="http://www.w3.org/2000/svg" viewBox="17 42 274 66" role="img" aria-labelledby="t"><title id="t">Grass Pass: your ticket to get outside</title><path d="M38.46,64.48C38.46,64.36 38.47,63.99 38.46,63.75C38.46,63.5 38.44,63.26 38.41,63.02C38.38,62.78 38.34,62.54 38.29,62.31C38.24,62.07 38.17,61.84 38.1,61.62C38.03,61.4 37.95,61.18 37.86,60.97C37.77,60.76 37.67,60.55 37.57,60.35C37.47,60.15 37.36,59.95 37.25,59.76C37.14,59.57 37.03,59.39 36.92,59.21C36.81,59.03 36.7,58.85 36.6,58.68C36.49,58.51 36.4,58.33 36.3,58.17C36.2,58 36.1,57.84 35.99,57.68C35.89,57.53 35.78,57.38 35.67,57.23C35.56,57.08 35.45,56.94 35.34,56.8C35.23,56.66 35.06,56.47 35,56.4L35.16,56.9C35.18,56.98 35.24,57.24 35.28,57.41C35.32,57.58 35.35,57.76 35.38,57.93C35.41,58.11 35.44,58.29 35.46,58.47C35.48,58.65 35.51,58.83 35.52,59.01C35.52,59.2 35.52,59.39 35.51,59.58C35.5,59.77 35.47,59.97 35.45,60.16C35.43,60.36 35.4,60.56 35.37,60.75C35.34,60.95 35.31,61.15 35.28,61.35C35.26,61.55 35.23,61.75 35.2,61.96C35.18,62.16 35.16,62.36 35.15,62.57C35.13,62.77 35.12,62.98 35.12,63.19C35.11,63.41 35.11,63.62 35.12,63.84C35.12,64.06 35.13,64.41 35.14,64.52Z" fill="#000"/><path d="M48.97,64.48C48.97,64.33 48.98,63.91 48.97,63.62C48.96,63.34 48.94,63.05 48.9,62.76C48.87,62.48 48.82,62.21 48.77,61.93C48.71,61.66 48.64,61.4 48.56,61.14C48.48,60.88 48.39,60.62 48.29,60.37C48.19,60.12 48.08,59.88 47.96,59.65C47.85,59.41 47.73,59.18 47.6,58.96C47.48,58.74 47.35,58.52 47.23,58.31C47.11,58.1 46.98,57.89 46.86,57.69C46.74,57.48 46.64,57.28 46.52,57.08C46.41,56.89 46.29,56.7 46.17,56.52C46.04,56.33 45.92,56.15 45.79,55.98C45.66,55.81 45.53,55.64 45.4,55.47C45.27,55.31 45.07,55.08 45,55L45.21,55.58C45.23,55.68 45.32,55.98 45.38,56.18C45.43,56.38 45.48,56.58 45.52,56.79C45.56,56.99 45.6,57.2 45.63,57.41C45.67,57.62 45.7,57.83 45.72,58.05C45.74,58.27 45.74,58.49 45.73,58.72C45.73,58.94 45.71,59.17 45.7,59.4C45.68,59.63 45.65,59.86 45.63,60.09C45.61,60.33 45.58,60.56 45.55,60.8C45.53,61.03 45.5,61.27 45.48,61.5C45.46,61.74 45.44,61.98 45.43,62.23C45.42,62.47 45.41,62.71 45.41,62.96C45.4,63.21 45.41,63.46 45.41,63.72C45.41,63.98 45.43,64.39 45.43,64.52Z" fill="#000"/><path d="M64.77,64.52C64.77,64.4 64.79,64.01 64.79,63.77C64.79,63.53 64.79,63.3 64.79,63.06C64.78,62.83 64.78,62.6 64.76,62.37C64.75,62.15 64.73,61.92 64.7,61.7C64.68,61.48 64.65,61.26 64.62,61.04C64.59,60.82 64.56,60.6 64.53,60.38C64.51,60.16 64.48,59.95 64.46,59.73C64.43,59.52 64.41,59.3 64.4,59.09C64.39,58.88 64.39,58.67 64.4,58.47C64.41,58.26 64.44,58.06 64.47,57.87C64.49,57.67 64.52,57.47 64.56,57.28C64.59,57.09 64.63,56.9 64.68,56.71C64.72,56.52 64.77,56.33 64.82,56.15C64.88,55.96 64.97,55.69 65,55.6L64.63,56.04C64.57,56.12 64.38,56.35 64.26,56.51C64.14,56.68 64.02,56.84 63.91,57.01C63.8,57.19 63.68,57.36 63.57,57.55C63.46,57.73 63.37,57.92 63.25,58.11C63.14,58.3 63.02,58.49 62.9,58.69C62.79,58.89 62.66,59.09 62.54,59.3C62.43,59.51 62.31,59.72 62.2,59.95C62.09,60.17 61.98,60.39 61.89,60.63C61.79,60.86 61.7,61.1 61.62,61.34C61.55,61.59 61.48,61.84 61.42,62.09C61.37,62.35 61.32,62.61 61.29,62.87C61.26,63.14 61.24,63.41 61.23,63.68C61.22,63.94 61.23,64.34 61.23,64.48Z" fill="#000"/><path d="M83.56,64.51C83.56,64.41 83.57,64.11 83.57,63.92C83.58,63.72 83.57,63.53 83.56,63.35C83.56,63.16 83.54,62.98 83.52,62.8C83.5,62.61 83.47,62.44 83.45,62.26C83.42,62.08 83.38,61.9 83.34,61.73C83.31,61.56 83.26,61.38 83.22,61.21C83.18,61.04 83.14,60.87 83.11,60.7C83.07,60.53 83.03,60.37 83,60.2C82.97,60.04 82.95,59.88 82.93,59.72C82.92,59.56 82.92,59.4 82.92,59.25C82.92,59.1 82.92,58.94 82.92,58.8C82.92,58.65 82.92,58.5 82.93,58.35C82.93,58.21 82.94,58.06 82.95,57.92C82.97,57.78 82.99,57.57 83,57.5L82.77,57.86C82.73,57.92 82.62,58.11 82.54,58.24C82.47,58.37 82.39,58.5 82.32,58.64C82.24,58.78 82.17,58.92 82.1,59.06C82.03,59.21 81.97,59.36 81.89,59.51C81.82,59.66 81.74,59.82 81.65,59.97C81.57,60.13 81.48,60.29 81.39,60.46C81.31,60.62 81.22,60.79 81.14,60.97C81.06,61.14 80.98,61.32 80.91,61.5C80.84,61.68 80.78,61.87 80.72,62.06C80.66,62.25 80.61,62.44 80.57,62.64C80.53,62.84 80.5,63.04 80.48,63.24C80.45,63.44 80.44,63.65 80.44,63.86C80.43,64.07 80.44,64.38 80.44,64.49Z" fill="#000"/><path d="M39.17,64.43C39.17,64.26 39.17,63.77 39.14,63.42C39.11,63.08 39.06,62.71 38.99,62.37C38.92,62.02 38.82,61.68 38.71,61.36C38.59,61.03 38.45,60.71 38.29,60.4C38.14,60.09 37.96,59.79 37.76,59.51C37.57,59.23 37.36,58.95 37.14,58.69C36.92,58.43 36.69,58.18 36.45,57.95C36.21,57.71 35.95,57.48 35.7,57.26C35.44,57.04 35.18,56.82 34.92,56.61C34.66,56.4 34.4,56.18 34.13,55.97C33.86,55.77 33.57,55.57 33.28,55.38C32.99,55.19 32.69,55 32.38,54.82C32.07,54.64 31.74,54.47 31.42,54.3C31.09,54.13 30.57,53.88 30.4,53.8L31.29,54.49C31.42,54.61 31.83,54.97 32.09,55.21C32.34,55.45 32.58,55.7 32.8,55.94C33.02,56.19 33.23,56.44 33.43,56.69C33.62,56.94 33.81,57.19 33.97,57.45C34.14,57.71 34.27,57.99 34.39,58.25C34.52,58.52 34.62,58.8 34.7,59.07C34.79,59.34 34.86,59.61 34.92,59.88C34.99,60.14 35.03,60.41 35.08,60.67C35.12,60.93 35.15,61.18 35.18,61.44C35.21,61.69 35.24,61.94 35.26,62.19C35.28,62.44 35.31,62.69 35.33,62.95C35.35,63.2 35.37,63.44 35.39,63.71C35.4,63.98 35.42,64.43 35.43,64.57Z" fill="#000"/><path d="M40.87,64.46C40.87,64.25 40.88,63.59 40.86,63.16C40.84,62.72 40.8,62.28 40.75,61.85C40.7,61.42 40.63,61 40.54,60.59C40.45,60.17 40.35,59.77 40.23,59.37C40.1,58.97 39.97,58.58 39.82,58.21C39.67,57.83 39.5,57.46 39.33,57.1C39.16,56.74 38.97,56.39 38.78,56.05C38.6,55.71 38.39,55.39 38.2,55.06C38,54.74 37.79,54.43 37.59,54.12C37.39,53.8 37.2,53.5 37,53.2C36.79,52.9 36.58,52.61 36.35,52.33C36.13,52.05 35.91,51.77 35.67,51.51C35.44,51.24 35.2,50.98 34.95,50.73C34.71,50.48 34.33,50.12 34.2,50L34.77,50.88C34.85,51.03 35.11,51.48 35.27,51.78C35.43,52.09 35.58,52.4 35.72,52.71C35.86,53.03 35.99,53.35 36.11,53.67C36.23,53.99 36.35,54.31 36.44,54.64C36.53,54.98 36.61,55.32 36.67,55.66C36.73,56 36.78,56.36 36.82,56.71C36.86,57.06 36.88,57.41 36.91,57.77C36.93,58.12 36.94,58.48 36.96,58.84C36.97,59.2 36.98,59.56 36.99,59.92C37,60.29 37.01,60.66 37.02,61.03C37.03,61.4 37.04,61.77 37.05,62.15C37.07,62.53 37.08,62.91 37.09,63.31C37.11,63.7 37.12,64.33 37.13,64.54Z" fill="#000"/><path d="M44.03,64.49C44.03,64.23 44.04,63.45 44.04,62.94C44.03,62.43 44.01,61.92 43.99,61.42C43.96,60.93 43.92,60.43 43.87,59.95C43.83,59.47 43.76,58.99 43.69,58.52C43.63,58.06 43.54,57.6 43.46,57.14C43.37,56.69 43.27,56.25 43.18,55.81C43.08,55.37 42.97,54.95 42.87,54.52C42.77,54.1 42.66,53.69 42.56,53.29C42.46,52.88 42.36,52.48 42.27,52.09C42.18,51.7 42.11,51.32 42.03,50.94C41.95,50.57 41.87,50.2 41.78,49.84C41.7,49.48 41.61,49.12 41.53,48.78C41.44,48.43 41.35,48.1 41.26,47.77C41.18,47.44 41.04,46.96 41,46.8L41.01,47.8C41.01,47.97 41.01,48.49 41,48.84C41,49.19 40.99,49.55 40.98,49.92C40.97,50.29 40.96,50.66 40.95,51.04C40.93,51.42 40.93,51.81 40.9,52.2C40.87,52.59 40.83,53 40.79,53.4C40.74,53.81 40.68,54.23 40.63,54.65C40.57,55.07 40.51,55.5 40.46,55.94C40.4,56.37 40.34,56.81 40.29,57.26C40.24,57.71 40.18,58.17 40.14,58.63C40.1,59.09 40.06,59.56 40.03,60.03C40.01,60.51 39.98,60.99 39.97,61.48C39.96,61.97 39.95,62.46 39.95,62.97C39.95,63.47 39.97,64.25 39.97,64.51Z" fill="#000"/><path d="M52.07,64.48C52.07,64.29 52.08,63.73 52.07,63.36C52.06,62.99 52.04,62.62 52,62.25C51.97,61.89 51.92,61.53 51.87,61.18C51.81,60.82 51.74,60.48 51.65,60.14C51.57,59.8 51.48,59.46 51.38,59.14C51.28,58.81 51.17,58.49 51.05,58.18C50.94,57.87 50.81,57.57 50.69,57.27C50.56,56.97 50.43,56.68 50.31,56.4C50.18,56.11 50.05,55.83 49.93,55.56C49.81,55.28 49.7,55.01 49.58,54.75C49.46,54.49 49.34,54.23 49.21,53.98C49.09,53.73 48.96,53.49 48.82,53.25C48.69,53.01 48.56,52.78 48.42,52.56C48.28,52.33 48.07,52.01 48,51.9L48.22,52.64C48.25,52.77 48.34,53.15 48.4,53.41C48.45,53.67 48.5,53.93 48.55,54.2C48.59,54.47 48.63,54.74 48.67,55.02C48.71,55.29 48.75,55.57 48.77,55.85C48.79,56.14 48.79,56.43 48.79,56.72C48.79,57.02 48.78,57.32 48.76,57.62C48.75,57.92 48.72,58.23 48.7,58.54C48.68,58.85 48.66,59.16 48.63,59.47C48.61,59.79 48.59,60.11 48.57,60.43C48.55,60.75 48.53,61.08 48.52,61.41C48.51,61.74 48.51,62.07 48.5,62.41C48.5,62.75 48.5,63.09 48.51,63.44C48.51,63.79 48.53,64.34 48.53,64.52Z" fill="#000"/><path d="M54.03,64.49C54.03,64.25 54.04,63.52 54.04,63.04C54.03,62.57 54.01,62.09 53.99,61.63C53.96,61.16 53.92,60.7 53.87,60.25C53.83,59.8 53.76,59.36 53.69,58.92C53.63,58.49 53.54,58.06 53.46,57.63C53.37,57.21 53.27,56.8 53.18,56.39C53.08,55.98 52.97,55.58 52.87,55.19C52.77,54.8 52.66,54.42 52.56,54.04C52.46,53.66 52.36,53.29 52.27,52.93C52.18,52.56 52.11,52.2 52.03,51.85C51.95,51.5 51.87,51.16 51.78,50.82C51.7,50.49 51.61,50.16 51.53,49.84C51.44,49.52 51.35,49.2 51.26,48.9C51.18,48.59 51.04,48.15 51,48L51.01,48.93C51.01,49.1 51.01,49.58 51,49.9C51,50.23 50.99,50.57 50.98,50.91C50.97,51.26 50.96,51.6 50.95,51.96C50.93,52.31 50.93,52.67 50.9,53.04C50.87,53.41 50.83,53.78 50.79,54.17C50.74,54.55 50.68,54.93 50.63,55.33C50.57,55.72 50.51,56.12 50.46,56.53C50.4,56.93 50.34,57.34 50.29,57.76C50.24,58.18 50.18,58.6 50.14,59.03C50.1,59.46 50.06,59.9 50.03,60.34C50.01,60.78 49.98,61.23 49.97,61.69C49.96,62.14 49.95,62.6 49.95,63.07C49.95,63.54 49.97,64.27 49.97,64.51Z" fill="#000"/><path d="M59.43,64.52C59.43,64.29 59.45,63.6 59.45,63.16C59.45,62.72 59.46,62.29 59.45,61.86C59.44,61.43 59.43,61.01 59.41,60.59C59.39,60.18 59.37,59.77 59.34,59.36C59.31,58.96 59.27,58.56 59.24,58.16C59.2,57.77 59.16,57.38 59.12,56.99C59.08,56.61 59.05,56.23 59.01,55.85C58.98,55.47 58.95,55.1 58.93,54.74C58.91,54.37 58.9,54.01 58.9,53.66C58.91,53.31 58.93,52.96 58.95,52.62C58.97,52.28 59,51.95 59.03,51.62C59.05,51.29 59.09,50.97 59.12,50.65C59.16,50.33 59.2,50.02 59.25,49.71C59.29,49.4 59.37,48.95 59.4,48.8L59,49.64C58.94,49.78 58.74,50.21 58.62,50.51C58.49,50.82 58.36,51.12 58.24,51.44C58.12,51.75 58,52.08 57.89,52.41C57.77,52.74 57.67,53.08 57.55,53.42C57.43,53.77 57.3,54.12 57.17,54.47C57.05,54.83 56.91,55.19 56.79,55.57C56.66,55.94 56.53,56.32 56.41,56.71C56.29,57.09 56.18,57.49 56.07,57.89C55.97,58.3 55.87,58.71 55.79,59.13C55.71,59.55 55.63,59.98 55.57,60.41C55.51,60.84 55.47,61.29 55.43,61.73C55.4,62.18 55.38,62.64 55.37,63.1C55.36,63.56 55.37,64.25 55.37,64.48Z" fill="#000"/><path d="M60.67,64.52C60.67,64.35 60.69,63.83 60.69,63.49C60.7,63.16 60.71,62.84 60.71,62.52C60.71,62.2 60.71,61.88 60.7,61.57C60.7,61.26 60.69,60.95 60.67,60.64C60.66,60.33 60.65,60.03 60.64,59.73C60.62,59.43 60.61,59.13 60.6,58.83C60.59,58.54 60.58,58.24 60.58,57.95C60.58,57.66 60.58,57.37 60.59,57.09C60.61,56.8 60.63,56.52 60.67,56.24C60.71,55.97 60.77,55.7 60.82,55.43C60.88,55.17 60.94,54.9 61.01,54.64C61.08,54.38 61.16,54.13 61.24,53.87C61.32,53.62 61.4,53.37 61.5,53.13C61.59,52.88 61.75,52.52 61.8,52.4L61.3,53.02C61.22,53.13 60.98,53.45 60.83,53.67C60.67,53.9 60.52,54.13 60.37,54.36C60.22,54.6 60.08,54.84 59.94,55.1C59.8,55.35 59.67,55.61 59.53,55.87C59.39,56.13 59.24,56.39 59.1,56.66C58.96,56.93 58.81,57.21 58.67,57.5C58.53,57.78 58.4,58.07 58.27,58.37C58.14,58.67 58.02,58.98 57.9,59.29C57.79,59.61 57.69,59.93 57.6,60.26C57.51,60.59 57.43,60.93 57.37,61.27C57.3,61.61 57.25,61.96 57.21,62.31C57.17,62.67 57.15,63.03 57.14,63.39C57.12,63.75 57.13,64.29 57.13,64.48Z" fill="#000"/><path d="M69.37,64.47C69.37,64.31 69.38,63.83 69.37,63.51C69.35,63.19 69.33,62.87 69.3,62.55C69.26,62.24 69.21,61.93 69.15,61.62C69.09,61.32 69.01,61.02 68.93,60.73C68.84,60.43 68.74,60.15 68.63,59.87C68.53,59.59 68.41,59.32 68.29,59.05C68.16,58.79 68.03,58.53 67.9,58.28C67.77,58.03 67.63,57.78 67.5,57.54C67.36,57.3 67.22,57.07 67.09,56.84C66.96,56.61 66.85,56.38 66.72,56.16C66.59,55.94 66.45,55.73 66.32,55.52C66.18,55.31 66.04,55.11 65.89,54.91C65.75,54.71 65.6,54.52 65.45,54.34C65.31,54.15 65.08,53.89 65,53.8L65.26,54.45C65.3,54.56 65.42,54.89 65.49,55.12C65.55,55.34 65.62,55.57 65.67,55.8C65.73,56.03 65.78,56.27 65.83,56.5C65.88,56.74 65.93,56.98 65.96,57.22C65.99,57.47 66,57.72 66.01,57.97C66.01,58.22 66.01,58.48 66,58.74C65.99,59 65.97,59.26 65.96,59.52C65.94,59.78 65.92,60.05 65.9,60.31C65.89,60.58 65.87,60.84 65.85,61.11C65.84,61.38 65.82,61.65 65.81,61.93C65.8,62.2 65.8,62.48 65.8,62.76C65.8,63.04 65.8,63.32 65.81,63.62C65.81,63.91 65.83,64.37 65.83,64.53Z" fill="#000"/><path d="M72.83,64.5C72.83,64.26 72.84,63.53 72.84,63.05C72.83,62.58 72.82,62.11 72.8,61.65C72.78,61.18 72.75,60.73 72.7,60.28C72.66,59.83 72.61,59.39 72.54,58.96C72.48,58.52 72.41,58.09 72.33,57.67C72.26,57.25 72.17,56.84 72.09,56.43C72,56.02 71.91,55.63 71.82,55.23C71.73,54.84 71.64,54.45 71.56,54.08C71.47,53.7 71.39,53.33 71.32,52.96C71.25,52.6 71.2,52.24 71.14,51.89C71.08,51.53 71.02,51.19 70.96,50.85C70.89,50.51 70.83,50.18 70.77,49.86C70.71,49.54 70.64,49.22 70.58,48.91C70.52,48.6 70.43,48.15 70.4,48L70.33,48.92C70.31,49.08 70.27,49.56 70.24,49.89C70.21,50.21 70.18,50.55 70.15,50.89C70.12,51.23 70.09,51.57 70.05,51.93C70.02,52.28 69.99,52.64 69.95,53.01C69.9,53.37 69.84,53.75 69.78,54.13C69.72,54.51 69.65,54.89 69.58,55.29C69.51,55.68 69.43,56.08 69.36,56.49C69.3,56.89 69.23,57.3 69.16,57.72C69.1,58.14 69.04,58.57 68.99,59C68.94,59.43 68.9,59.87 68.86,60.32C68.83,60.76 68.8,61.21 68.78,61.67C68.77,62.13 68.76,62.59 68.76,63.06C68.76,63.54 68.77,64.26 68.77,64.5Z" fill="#000"/><path d="M79.24,65.63C79.24,65.36 79.26,64.54 79.27,64.01C79.28,63.48 79.28,62.97 79.29,62.47C79.29,61.96 79.28,61.46 79.28,60.96C79.27,60.47 79.26,59.98 79.24,59.5C79.23,59.02 79.21,58.54 79.19,58.07C79.18,57.6 79.16,57.13 79.14,56.67C79.13,56.21 79.12,55.76 79.12,55.3C79.11,54.85 79.11,54.41 79.13,53.97C79.15,53.53 79.17,53.1 79.22,52.67C79.27,52.25 79.34,51.84 79.41,51.43C79.48,51.02 79.56,50.61 79.64,50.21C79.73,49.82 79.82,49.43 79.91,49.04C80.01,48.65 80.12,48.27 80.23,47.9C80.35,47.53 80.54,46.98 80.6,46.8L79.98,47.79C79.88,47.96 79.57,48.47 79.38,48.83C79.18,49.18 78.99,49.55 78.8,49.92C78.62,50.3 78.44,50.68 78.26,51.08C78.09,51.47 77.93,51.87 77.75,52.28C77.58,52.69 77.4,53.11 77.22,53.54C77.04,53.96 76.86,54.39 76.68,54.84C76.51,55.28 76.34,55.74 76.18,56.2C76.02,56.67 75.86,57.14 75.72,57.63C75.59,58.11 75.46,58.61 75.34,59.11C75.23,59.62 75.13,60.14 75.05,60.66C74.97,61.18 74.91,61.72 74.86,62.26C74.81,62.8 74.78,63.35 74.77,63.91C74.75,64.46 74.76,65.3 74.76,65.57Z" fill="#000"/><path d="M81.37,64.55C81.38,64.38 81.4,63.87 81.41,63.54C81.42,63.22 81.44,62.92 81.46,62.62C81.47,62.32 81.49,62.02 81.5,61.72C81.52,61.42 81.53,61.12 81.55,60.83C81.56,60.53 81.58,60.23 81.6,59.94C81.63,59.64 81.65,59.34 81.69,59.05C81.72,58.75 81.76,58.45 81.82,58.15C81.87,57.86 81.94,57.56 82.02,57.26C82.1,56.97 82.2,56.68 82.31,56.39C82.43,56.11 82.57,55.83 82.71,55.56C82.86,55.28 83.01,55.01 83.18,54.74C83.35,54.47 83.53,54.2 83.72,53.94C83.91,53.68 84.11,53.41 84.32,53.16C84.54,52.9 84.89,52.53 85,52.4L84.16,52.99C84.03,53.09 83.62,53.39 83.36,53.61C83.11,53.82 82.85,54.04 82.61,54.27C82.37,54.49 82.13,54.73 81.9,54.97C81.67,55.21 81.46,55.46 81.24,55.72C81.01,55.97 80.79,56.22 80.57,56.49C80.36,56.75 80.14,57.02 79.93,57.29C79.72,57.57 79.52,57.86 79.33,58.16C79.15,58.46 78.96,58.77 78.8,59.09C78.64,59.41 78.48,59.74 78.35,60.07C78.22,60.41 78.1,60.76 78,61.12C77.91,61.48 77.83,61.84 77.77,62.21C77.71,62.58 77.67,62.97 77.65,63.34C77.62,63.71 77.63,64.27 77.63,64.45Z" fill="#000"/><defs><mask id="gp-mono-cut" maskUnits="userSpaceOnUse" x="0" y="0" width="120" height="120"><rect width="120" height="120" fill="#fff"/><g stroke="#000"><path d="M33,66.2H69.6M33,99.4H69.6" stroke-width="2" stroke-linecap="round" fill="none"/><path d="M75,67.6V97.8" stroke-width="1.55" stroke-linecap="round" stroke-dasharray="4.4 3.6" fill="none"/></g><g fill="#000"><circle cx="85.9" cy="82.8" r="4.9"/><circle cx="92.37" cy="84.09" r="0.75"/><circle cx="91.39" cy="86.47" r="0.75"/><circle cx="89.57" cy="88.29" r="0.75"/><circle cx="87.19" cy="89.27" r="0.75"/><circle cx="84.61" cy="89.27" r="0.75"/><circle cx="82.23" cy="88.29" r="0.75"/><circle cx="80.41" cy="86.47" r="0.75"/><circle cx="79.43" cy="84.09" r="0.75"/><circle cx="79.43" cy="81.51" r="0.75"/><circle cx="80.41" cy="79.13" r="0.75"/><circle cx="82.23" cy="77.31" r="0.75"/><circle cx="84.61" cy="76.33" r="0.75"/><circle cx="87.19" cy="76.33" r="0.75"/><circle cx="89.57" cy="77.31" r="0.75"/><circle cx="91.39" cy="79.13" r="0.75"/><circle cx="92.37" cy="81.51" r="0.75"/></g></mask></defs><path fill="#000" mask="url(#gp-mono-cut)" d="M27,62L73.3,62A1.7,1.7 0 0 0 76.7,62L93.6,62A6,6 0 0 1 99.6,68L99.6,73.57A3.8,3.8 0 0 1 97.27,77.07A6,6 0 0 0 97.27,88.13A3.8,3.8 0 0 1 99.6,91.63L99.6,97.8A6,6 0 0 1 93.6,103.8L76.7,103.8A1.7,1.7 0 0 0 73.3,103.8L27,103.8A6,6 0 0 1 21,97.8L21,91.63A3.8,3.8 0 0 1 23.33,88.13A6,6 0 0 0 23.33,77.07A3.8,3.8 0 0 1 21,73.57L21,68A6,6 0 0 1 27,62Z"/><path fill="#000" d="M116.47,84.5L116.47,84.5Q111.26,84.5 108.13,81.55Q105,78.61 105,73.4L105,73.4Q105,68.16 108.07,65.23Q111.14,62.3 116.69,62.3L116.69,62.3Q118.98,62.3 121.12,62.66L121.12,62.66Q121.86,62.77 122.34,63.35Q122.82,63.93 122.82,64.67L122.82,64.67L122.82,65.47Q122.82,66.09 122.3,66.47Q121.77,66.86 121.12,66.71L121.12,66.71Q119.2,66.3 117.31,66.3L117.31,66.3Q110.36,66.3 110.36,73.4L110.36,73.4Q110.36,76.95 112.02,78.72Q113.68,80.5 116.78,80.5L116.78,80.5Q117.74,80.5 118.73,80.26L118.73,80.26Q119.01,80.2 119.01,79.94L119.01,79.94L119.01,75.11Q119.01,74.88 118.73,74.88L118.73,74.88L115.85,74.88Q115.14,74.88 114.61,74.37Q114.08,73.87 114.08,73.19L114.08,73.19L114.08,72.75Q114.08,72.07 114.61,71.56Q115.14,71.06 115.85,71.06L115.85,71.06L122.26,71.06Q122.98,71.06 123.49,71.56Q124,72.07 124,72.75L124,72.75L124,81.6Q124,82.37 123.54,82.97Q123.07,83.58 122.33,83.79L122.33,83.79Q119.54,84.5 116.47,84.5Z M132.26,66.56L132.26,66.56L132.26,72.24Q132.26,72.51 132.51,72.51L132.51,72.51L134.03,72.51Q136.23,72.51 137.4,71.64Q138.56,70.76 138.56,69.2L138.56,69.2Q138.56,66.12 134.25,66.12L134.25,66.12Q133.27,66.12 132.55,66.24L132.55,66.24Q132.26,66.3 132.26,66.56ZM130.47,84.2L128.8,84.2Q128.07,84.2 127.54,83.7Q127,83.19 127,82.51L127,82.51L127,64.43Q127,63.69 127.52,63.16Q128.04,62.63 128.8,62.57L128.8,62.57Q131.6,62.3 134.56,62.3L134.56,62.3Q139.29,62.3 141.6,63.97Q143.92,65.64 143.92,68.72L143.92,68.72Q143.92,70.7 142.69,72.29Q141.46,73.87 139.48,74.55L139.48,74.55Q139.44,74.55 139.44,74.58L139.44,74.58Q139.44,74.64 139.51,74.64L139.51,74.64Q141.05,75.47 142.12,78.13L142.12,78.13L143.92,82.63Q144.14,83.19 143.76,83.7Q143.38,84.2 142.75,84.2L142.75,84.2L140.83,84.2Q140.01,84.2 139.35,83.76Q138.69,83.31 138.44,82.6L138.44,82.6L136.86,78.34Q136.42,77.1 135.79,76.65Q135.16,76.21 133.84,76.21L133.84,76.21L132.51,76.21Q132.26,76.21 132.26,76.48L132.26,76.48L132.26,82.51Q132.26,83.19 131.73,83.7Q131.19,84.2 130.47,84.2L130.47,84.2Z M156.9,66.98L156.9,66.98L154.44,75.47Q154.4,75.56 154.49,75.63Q154.57,75.71 154.67,75.71L154.67,75.71L159.19,75.71Q159.29,75.71 159.38,75.63Q159.46,75.56 159.43,75.47L159.43,75.47L156.97,66.98Q156.97,66.95 156.93,66.95Q156.9,66.95 156.9,66.98ZM150.02,84.2L147.89,84.2Q147.18,84.2 146.76,83.7Q146.34,83.19 146.57,82.6L146.57,82.6L153.39,64.19Q153.66,63.48 154.35,63.04Q155.04,62.6 155.89,62.6L155.89,62.6L158.11,62.6Q158.99,62.6 159.7,63.04Q160.41,63.48 160.64,64.19L160.64,64.19L167.42,82.6Q167.66,83.19 167.24,83.7Q166.82,84.2 166.11,84.2L166.11,84.2L163.85,84.2Q163.01,84.2 162.33,83.74Q161.66,83.28 161.45,82.57L161.45,82.57L160.64,79.76Q160.61,79.52 160.31,79.52L160.31,79.52L153.56,79.52Q153.29,79.52 153.22,79.76L153.22,79.76L152.41,82.57Q152.21,83.28 151.53,83.74Q150.86,84.2 150.02,84.2L150.02,84.2Z M176.68,75.56L176.68,75.56Q172.61,74.37 170.81,72.61Q169,70.85 169,68.31L169,68.31Q169,65.53 171.11,63.91Q173.23,62.3 177.16,62.3L177.16,62.3Q180.13,62.3 182.55,62.92L182.55,62.92Q183.32,63.13 183.79,63.76Q184.26,64.4 184.26,65.17L184.26,65.17L184.26,66.03Q184.26,66.62 183.71,66.95Q183.16,67.27 182.55,67.06L182.55,67.06Q179.81,66.18 177.48,66.18L177.48,66.18Q174.52,66.18 174.52,68.31L174.52,68.31Q174.52,70.11 177.1,70.88L177.1,70.88Q181.55,72.13 183.27,73.78Q185,75.44 185,78.13L185,78.13Q185,84.5 176.26,84.5L176.26,84.5Q173.48,84.5 171.23,83.7L171.23,83.7Q170.45,83.43 170.02,82.76Q169.58,82.1 169.58,81.3L169.58,81.3L169.58,80.35Q169.58,79.82 170.1,79.54Q170.61,79.26 171.13,79.49L171.13,79.49Q173.48,80.56 175.94,80.56L175.94,80.56Q177.65,80.56 178.53,79.95Q179.42,79.35 179.42,78.22L179.42,78.22Q179.42,77.25 178.81,76.62Q178.19,76 176.68,75.56Z M194.68,75.56L194.68,75.56Q190.61,74.37 188.81,72.61Q187,70.85 187,68.31L187,68.31Q187,65.53 189.11,63.91Q191.23,62.3 195.16,62.3L195.16,62.3Q198.13,62.3 200.55,62.92L200.55,62.92Q201.32,63.13 201.79,63.76Q202.26,64.4 202.26,65.17L202.26,65.17L202.26,66.03Q202.26,66.62 201.71,66.95Q201.16,67.27 200.55,67.06L200.55,67.06Q197.81,66.18 195.48,66.18L195.48,66.18Q192.52,66.18 192.52,68.31L192.52,68.31Q192.52,70.11 195.1,70.88L195.1,70.88Q199.55,72.13 201.27,73.78Q203,75.44 203,78.13L203,78.13Q203,84.5 194.26,84.5L194.26,84.5Q191.48,84.5 189.23,83.7L189.23,83.7Q188.45,83.43 188.02,82.76Q187.58,82.1 187.58,81.3L187.58,81.3L187.58,80.35Q187.58,79.82 188.1,79.54Q188.61,79.26 189.13,79.49L189.13,79.49Q191.48,80.56 193.94,80.56L193.94,80.56Q195.65,80.56 196.53,79.95Q197.42,79.35 197.42,78.22L197.42,78.22Q197.42,77.25 196.81,76.62Q196.19,76 194.68,75.56Z M218.17,66.56L218.17,66.56L218.17,73.01Q218.17,73.22 218.45,73.28L218.45,73.28Q219.5,73.4 220.12,73.4L220.12,73.4Q222.35,73.4 223.57,72.41Q224.79,71.42 224.79,69.64L224.79,69.64Q224.79,66.12 220.12,66.12L220.12,66.12Q219.35,66.12 218.42,66.27L218.42,66.27Q218.17,66.32 218.17,66.56ZM216.4,84.2L214.76,84.2Q214.05,84.2 213.53,83.7Q213,83.19 213,82.51L213,82.51L213,64.43Q213,63.72 213.5,63.16Q213.99,62.6 214.73,62.54L214.73,62.54Q217.36,62.3 219.81,62.3L219.81,62.3Q229.72,62.3 229.72,69.34L229.72,69.34Q229.72,73.16 227.41,75.13Q225.1,77.1 220.65,77.1L220.65,77.1Q219.47,77.1 218.45,77.01L218.45,77.01Q218.17,77.01 218.17,77.25L218.17,77.25L218.17,82.51Q218.17,83.19 217.64,83.7Q217.12,84.2 216.4,84.2L216.4,84.2Z M241.26,66.98L241.26,66.98L239,75.47Q238.97,75.56 239.05,75.63Q239.13,75.71 239.22,75.71L239.22,75.71L243.37,75.71Q243.46,75.71 243.54,75.63Q243.62,75.56 243.59,75.47L243.59,75.47L241.33,66.98Q241.33,66.95 241.3,66.95Q241.26,66.95 241.26,66.98ZM234.95,84.2L233,84.2Q232.35,84.2 231.96,83.7Q231.58,83.19 231.79,82.6L231.79,82.6L238.05,64.19Q238.29,63.48 238.93,63.04Q239.56,62.6 240.34,62.6L240.34,62.6L242.38,62.6Q243.18,62.6 243.83,63.04Q244.48,63.48 244.7,64.19L244.7,64.19L250.92,82.6Q251.14,83.19 250.75,83.7Q250.37,84.2 249.72,84.2L249.72,84.2L247.64,84.2Q246.87,84.2 246.25,83.74Q245.63,83.28 245.44,82.57L245.44,82.57L244.7,79.76Q244.67,79.52 244.39,79.52L244.39,79.52L238.2,79.52Q237.95,79.52 237.89,79.76L237.89,79.76L237.15,82.57Q236.96,83.28 236.34,83.74Q235.72,84.2 234.95,84.2L234.95,84.2Z M260.2,75.56L260.2,75.56Q256.39,74.37 254.69,72.61Q253,70.85 253,68.31L253,68.31Q253,65.53 254.98,63.91Q256.96,62.3 260.65,62.3L260.65,62.3Q263.43,62.3 265.7,62.92L265.7,62.92Q266.43,63.13 266.87,63.76Q267.3,64.4 267.3,65.17L267.3,65.17L267.3,66.03Q267.3,66.62 266.79,66.95Q266.28,67.27 265.7,67.06L265.7,67.06Q263.13,66.18 260.95,66.18L260.95,66.18Q258.17,66.18 258.17,68.31L258.17,68.31Q258.17,70.11 260.59,70.88L260.59,70.88Q264.76,72.13 266.38,73.78Q268,75.44 268,78.13L268,78.13Q268,84.5 259.8,84.5L259.8,84.5Q257.2,84.5 255.09,83.7L255.09,83.7Q254.36,83.43 253.95,82.76Q253.54,82.1 253.54,81.3L253.54,81.3L253.54,80.35Q253.54,79.82 254.03,79.54Q254.51,79.26 255,79.49L255,79.49Q257.2,80.56 259.5,80.56L259.5,80.56Q261.1,80.56 261.94,79.95Q262.77,79.35 262.77,78.22L262.77,78.22Q262.77,77.25 262.19,76.62Q261.62,76 260.2,75.56Z M277.68,75.56L277.68,75.56Q273.61,74.37 271.81,72.61Q270,70.85 270,68.31L270,68.31Q270,65.53 272.11,63.91Q274.23,62.3 278.16,62.3L278.16,62.3Q281.13,62.3 283.55,62.92L283.55,62.92Q284.32,63.13 284.79,63.76Q285.26,64.4 285.26,65.17L285.26,65.17L285.26,66.03Q285.26,66.62 284.71,66.95Q284.16,67.27 283.55,67.06L283.55,67.06Q280.81,66.18 278.48,66.18L278.48,66.18Q275.52,66.18 275.52,68.31L275.52,68.31Q275.52,70.11 278.1,70.88L278.1,70.88Q282.55,72.13 284.27,73.78Q286,75.44 286,78.13L286,78.13Q286,84.5 277.26,84.5L277.26,84.5Q274.48,84.5 272.23,83.7L272.23,83.7Q271.45,83.43 271.02,82.76Q270.58,82.1 270.58,81.3L270.58,81.3L270.58,80.35Q270.58,79.82 271.1,79.54Q271.61,79.26 272.13,79.49L272.13,79.49Q274.48,80.56 276.94,80.56L276.94,80.56Q278.65,80.56 279.53,79.95Q280.42,79.35 280.42,78.22L280.42,78.22Q280.42,77.25 279.81,76.62Q279.19,76 277.68,75.56Z"/><path fill="#000" stroke="#000" stroke-width="0.42" stroke-linejoin="round" d="M113.23,103.93L113.23,103.93Q112.99,103.93 112.82,103.76Q112.65,103.59 112.65,103.35L112.65,103.35Q112.65,103.23 112.69,103.13L112.69,103.13L113.56,100.91L111.05,94.8Q111.04,94.75 111.02,94.68Q111,94.61 111,94.55L111,94.55Q111,94.29 111.17,94.11Q111.35,93.93 111.6,93.93L111.6,93.93Q111.79,93.93 111.94,94.04Q112.09,94.15 112.16,94.31L112.16,94.31L114.21,99.4L116.31,94.33Q116.39,94.15 116.53,94.04Q116.67,93.93 116.87,93.93L116.87,93.93Q117.12,93.93 117.29,94.11Q117.47,94.29 117.47,94.55L117.47,94.55Q117.47,94.67 117.43,94.77L117.43,94.77L113.79,103.52Q113.71,103.69 113.57,103.81Q113.44,103.93 113.23,103.93Z M122.22,100.93L122.22,100.93Q121.19,100.93 120.42,100.49Q119.65,100.04 119.23,99.25Q118.81,98.45 118.81,97.4L118.81,97.4Q118.81,96.35 119.23,95.55Q119.65,94.76 120.42,94.31Q121.19,93.87 122.22,93.87L122.22,93.87Q123.25,93.87 124.01,94.31Q124.78,94.76 125.21,95.55Q125.63,96.35 125.63,97.4L125.63,97.4Q125.63,98.45 125.21,99.25Q124.78,100.04 124.01,100.49Q123.25,100.93 122.22,100.93ZM122.22,99.83L122.22,99.83Q122.73,99.83 123.23,99.59Q123.74,99.35 124.08,98.81Q124.42,98.27 124.42,97.39L124.42,97.39Q124.42,96.51 124.08,95.97Q123.74,95.44 123.23,95.21Q122.73,94.97 122.22,94.97L122.22,94.97Q121.71,94.97 121.2,95.21Q120.69,95.44 120.35,95.97Q120.02,96.51 120.02,97.39L120.02,97.39Q120.02,98.27 120.35,98.81Q120.69,99.35 121.2,99.59Q121.71,99.83 122.22,99.83Z M130,100.93L130,100.93Q129.24,100.93 128.71,100.58Q128.17,100.23 127.89,99.63Q127.61,99.03 127.61,98.32L127.61,98.32L127.61,94.53Q127.61,94.28 127.79,94.11Q127.97,93.93 128.23,93.93L128.23,93.93Q128.48,93.93 128.65,94.11Q128.83,94.28 128.83,94.53L128.83,94.53L128.83,98.19Q128.83,98.95 129.17,99.38Q129.52,99.81 130.29,99.81L130.29,99.81Q131.01,99.81 131.55,99.42Q132.08,99.03 132.48,98.53L132.48,98.53L132.48,94.53Q132.48,94.28 132.66,94.11Q132.84,93.93 133.09,93.93L133.09,93.93Q133.35,93.93 133.52,94.11Q133.69,94.28 133.69,94.53L133.69,94.53L133.69,100.25Q133.69,100.51 133.52,100.69Q133.35,100.87 133.09,100.87L133.09,100.87Q132.84,100.87 132.66,100.69Q132.48,100.51 132.48,100.25L132.48,100.25L132.48,99.71Q132.07,100.16 131.48,100.55Q130.89,100.93 130,100.93Z M136.76,100.87L136.76,100.87Q136.5,100.87 136.33,100.69Q136.16,100.52 136.16,100.27L136.16,100.27L136.16,94.55Q136.16,94.29 136.33,94.11Q136.5,93.93 136.76,93.93L136.76,93.93Q137.01,93.93 137.19,94.11Q137.37,94.29 137.37,94.55L137.37,94.55L137.37,95.12Q137.73,94.64 138.25,94.25Q138.77,93.87 139.46,93.87L139.46,93.87L139.53,93.87Q139.78,93.87 139.95,94.04Q140.12,94.21 140.12,94.47L140.12,94.47Q140.12,94.72 139.94,94.88Q139.77,95.04 139.5,95.04L139.5,95.04L139.44,95.04Q138.78,95.04 138.25,95.37Q137.72,95.69 137.37,96.21L137.37,96.21L137.37,100.27Q137.37,100.52 137.19,100.69Q137.01,100.87 136.76,100.87Z M147.78,100.93L147.78,100.93Q147.54,100.93 147.22,100.89Q146.89,100.84 146.58,100.67Q146.26,100.51 146.05,100.15Q145.84,99.79 145.84,99.17L145.84,99.17L145.84,95.04L144.89,95.04Q144.64,95.04 144.64,94.79L144.64,94.79Q144.64,94.65 144.76,94.56L144.76,94.56L146.57,92.79Q146.6,92.76 146.66,92.71Q146.72,92.67 146.8,92.67L146.8,92.67Q146.9,92.67 146.98,92.75Q147.05,92.83 147.05,92.93L147.05,92.93L147.05,94L148.56,94Q148.78,94 148.93,94.15Q149.08,94.29 149.08,94.52L149.08,94.52Q149.08,94.73 148.93,94.89Q148.78,95.04 148.56,95.04L148.56,95.04L147.05,95.04L147.05,99.07Q147.05,99.45 147.2,99.63Q147.34,99.8 147.55,99.83Q147.76,99.87 147.92,99.87L147.92,99.87Q148.24,99.87 148.39,99.81Q148.54,99.75 148.72,99.75L148.72,99.75Q148.9,99.75 149.05,99.88Q149.2,100.01 149.2,100.23L149.2,100.23Q149.2,100.53 148.89,100.69L148.89,100.69Q148.65,100.8 148.38,100.87Q148.1,100.93 147.78,100.93Z M151.54,92.61L151.46,92.61Q151.18,92.61 150.98,92.41Q150.78,92.21 150.78,91.93L150.78,91.93L150.78,91.88Q150.78,91.6 150.98,91.4Q151.18,91.2 151.46,91.2L151.46,91.2L151.54,91.2Q151.82,91.2 152.02,91.4Q152.22,91.6 152.22,91.88L152.22,91.88L152.22,91.93Q152.22,92.21 152.02,92.41Q151.82,92.61 151.54,92.61L151.54,92.61ZM151.48,100.87L151.48,100.87Q151.23,100.87 151.06,100.69Q150.88,100.52 150.88,100.27L150.88,100.27L150.88,94.55Q150.88,94.28 151.06,94.11Q151.23,93.93 151.48,93.93L151.48,93.93Q151.75,93.93 151.92,94.11Q152.1,94.28 152.1,94.55L152.1,94.55L152.1,100.27Q152.1,100.52 151.92,100.69Q151.75,100.87 151.48,100.87Z M157.71,100.93L157.71,100.93Q156.76,100.93 155.95,100.51Q155.13,100.09 154.64,99.3Q154.15,98.51 154.15,97.4L154.15,97.4Q154.15,96.28 154.64,95.49Q155.13,94.71 155.95,94.29Q156.76,93.87 157.71,93.87L157.71,93.87Q158.49,93.87 159.02,94.07Q159.55,94.28 159.88,94.51L159.88,94.51Q160.15,94.68 160.15,94.97L160.15,94.97Q160.15,95.16 160,95.33Q159.85,95.51 159.64,95.51L159.64,95.51Q159.49,95.51 159.35,95.43L159.35,95.43Q159,95.24 158.67,95.12Q158.33,95 157.81,95L157.81,95Q156.65,95 156.01,95.67Q155.36,96.33 155.36,97.4L155.36,97.4Q155.36,98.47 156.01,99.13Q156.65,99.8 157.81,99.8L157.81,99.8Q158.33,99.8 158.67,99.67Q159,99.55 159.35,99.37L159.35,99.37Q159.49,99.29 159.64,99.29L159.64,99.29Q159.85,99.29 160,99.47Q160.15,99.64 160.15,99.83L160.15,99.83Q160.15,100.12 159.88,100.29L159.88,100.29Q159.55,100.51 159.02,100.72Q158.49,100.93 157.71,100.93Z M162.62,100.87L162.62,100.87Q162.37,100.87 162.19,100.69Q162.02,100.52 162.02,100.27L162.02,100.27L162.02,91.61Q162.02,91.36 162.19,91.18Q162.37,91 162.62,91L162.62,91Q162.87,91 163.05,91.18Q163.23,91.36 163.23,91.61L163.23,91.61L163.23,97.07L166.41,94.13Q166.49,94.07 166.59,94.01Q166.69,93.96 166.81,93.96L166.81,93.96Q167.15,93.96 167.27,94.15Q167.39,94.35 167.39,94.55L167.39,94.55Q167.39,94.63 167.35,94.74Q167.31,94.85 167.17,95L167.17,95L165.25,96.72L167.66,99.92Q167.79,100.09 167.79,100.28L167.79,100.28Q167.79,100.55 167.62,100.71Q167.45,100.87 167.18,100.87L167.18,100.87Q166.9,100.87 166.69,100.61L166.69,100.61L164.39,97.49L163.23,98.55L163.23,100.27Q163.23,100.52 163.05,100.69Q162.87,100.87 162.62,100.87Z M172.68,100.93L172.68,100.93Q171.05,100.93 170.14,100.01Q169.23,99.08 169.23,97.4L169.23,97.4Q169.23,96.49 169.56,95.69Q169.89,94.88 170.6,94.37Q171.31,93.87 172.41,93.87L172.41,93.87Q173.44,93.87 174.15,94.34Q174.85,94.81 175.22,95.57Q175.59,96.33 175.59,97.23L175.59,97.23Q175.59,97.48 175.42,97.65Q175.25,97.83 174.97,97.83L174.97,97.83L170.45,97.83Q170.56,98.72 171.13,99.26Q171.71,99.8 172.79,99.8L172.79,99.8Q173.39,99.8 173.8,99.69Q174.21,99.57 174.59,99.39L174.59,99.39Q174.69,99.33 174.83,99.33L174.83,99.33Q175.04,99.33 175.2,99.48Q175.36,99.63 175.36,99.85L175.36,99.85Q175.36,100.01 175.26,100.14Q175.16,100.27 175.01,100.35L175.01,100.35Q174.57,100.6 174.06,100.77Q173.55,100.93 172.68,100.93ZM170.45,96.84L170.45,96.84L174.39,96.84Q174.35,96.15 174.03,95.72Q173.72,95.29 173.28,95.09Q172.84,94.89 172.41,94.89L172.41,94.89Q171.99,94.89 171.55,95.09Q171.11,95.29 170.8,95.72Q170.49,96.15 170.45,96.84Z M179.89,100.93L179.89,100.93Q179.65,100.93 179.32,100.89Q178.99,100.84 178.68,100.67Q178.37,100.51 178.15,100.15Q177.94,99.79 177.94,99.17L177.94,99.17L177.94,95.04L176.99,95.04Q176.74,95.04 176.74,94.79L176.74,94.79Q176.74,94.65 176.86,94.56L176.86,94.56L178.67,92.79Q178.7,92.76 178.76,92.71Q178.82,92.67 178.9,92.67L178.9,92.67Q179.01,92.67 179.08,92.75Q179.15,92.83 179.15,92.93L179.15,92.93L179.15,94L180.66,94Q180.89,94 181.03,94.15Q181.18,94.29 181.18,94.52L181.18,94.52Q181.18,94.73 181.03,94.89Q180.89,95.04 180.66,95.04L180.66,95.04L179.15,95.04L179.15,99.07Q179.15,99.45 179.3,99.63Q179.45,99.8 179.65,99.83Q179.86,99.87 180.02,99.87L180.02,99.87Q180.34,99.87 180.49,99.81Q180.65,99.75 180.82,99.75L180.82,99.75Q181.01,99.75 181.15,99.88Q181.3,100.01 181.3,100.23L181.3,100.23Q181.3,100.53 180.99,100.69L180.99,100.69Q180.75,100.8 180.48,100.87Q180.21,100.93 179.89,100.93Z M189.16,100.93L189.16,100.93Q188.92,100.93 188.59,100.89Q188.26,100.84 187.95,100.67Q187.64,100.51 187.42,100.15Q187.21,99.79 187.21,99.17L187.21,99.17L187.21,95.04L186.26,95.04Q186.01,95.04 186.01,94.79L186.01,94.79Q186.01,94.65 186.13,94.56L186.13,94.56L187.94,92.79Q187.97,92.76 188.03,92.71Q188.09,92.67 188.17,92.67L188.17,92.67Q188.28,92.67 188.35,92.75Q188.42,92.83 188.42,92.93L188.42,92.93L188.42,94L189.93,94Q190.16,94 190.3,94.15Q190.45,94.29 190.45,94.52L190.45,94.52Q190.45,94.73 190.3,94.89Q190.16,95.04 189.93,95.04L189.93,95.04L188.42,95.04L188.42,99.07Q188.42,99.45 188.57,99.63Q188.72,99.8 188.92,99.83Q189.13,99.87 189.29,99.87L189.29,99.87Q189.61,99.87 189.76,99.81Q189.92,99.75 190.09,99.75L190.09,99.75Q190.28,99.75 190.42,99.88Q190.57,100.01 190.57,100.23L190.57,100.23Q190.57,100.53 190.26,100.69L190.26,100.69Q190.02,100.8 189.75,100.87Q189.48,100.93 189.16,100.93Z M195.26,100.93L195.26,100.93Q194.23,100.93 193.46,100.49Q192.68,100.04 192.26,99.25Q191.84,98.45 191.84,97.4L191.84,97.4Q191.84,96.35 192.26,95.55Q192.68,94.76 193.46,94.31Q194.23,93.87 195.26,93.87L195.26,93.87Q196.28,93.87 197.05,94.31Q197.82,94.76 198.24,95.55Q198.67,96.35 198.67,97.4L198.67,97.4Q198.67,98.45 198.24,99.25Q197.82,100.04 197.05,100.49Q196.28,100.93 195.26,100.93ZM195.26,99.83L195.26,99.83Q195.76,99.83 196.27,99.59Q196.78,99.35 197.12,98.81Q197.46,98.27 197.46,97.39L197.46,97.39Q197.46,96.51 197.12,95.97Q196.78,95.44 196.27,95.21Q195.76,94.97 195.26,94.97L195.26,94.97Q194.75,94.97 194.24,95.21Q193.72,95.44 193.39,95.97Q193.06,96.51 193.06,97.39L193.06,97.39Q193.06,98.27 193.39,98.81Q193.72,99.35 194.24,99.59Q194.75,99.83 195.26,99.83Z M207.71,104L207.71,104Q206.9,104 206.11,103.79Q205.33,103.57 204.86,103.31L204.86,103.31Q204.77,103.24 204.69,103.13Q204.62,103.03 204.62,102.84L204.62,102.84Q204.62,102.64 204.77,102.47Q204.93,102.29 205.15,102.29L205.15,102.29Q205.22,102.29 205.28,102.31Q205.34,102.32 205.39,102.35L205.39,102.35Q205.82,102.56 206.37,102.71Q206.91,102.85 207.59,102.85L207.59,102.85Q209.63,102.85 209.63,100.68L209.63,100.68L209.63,99.79Q209.22,100.23 208.66,100.51Q208.1,100.8 207.35,100.8L207.35,100.8Q206.79,100.8 206.23,100.59Q205.66,100.37 205.19,99.95Q204.71,99.52 204.42,98.87Q204.13,98.21 204.13,97.33L204.13,97.33Q204.13,96.45 204.42,95.8Q204.71,95.15 205.19,94.72Q205.66,94.29 206.23,94.08Q206.79,93.87 207.35,93.87L207.35,93.87Q208.1,93.87 208.66,94.15Q209.22,94.44 209.63,94.88L209.63,94.88L209.63,94.55Q209.63,94.29 209.81,94.11Q209.98,93.93 210.23,93.93L210.23,93.93Q210.49,93.93 210.67,94.11Q210.85,94.29 210.85,94.55L210.85,94.55L210.85,100.51Q210.85,102.19 210.03,103.09Q209.22,104 207.71,104ZM207.61,99.69L207.61,99.69Q208.3,99.69 208.78,99.39Q209.26,99.08 209.63,98.71L209.63,98.71L209.63,95.96Q209.26,95.57 208.78,95.27Q208.3,94.97 207.61,94.97L207.61,94.97Q206.98,94.97 206.46,95.23Q205.94,95.48 205.64,96.01Q205.34,96.53 205.34,97.33L205.34,97.33Q205.34,98.13 205.64,98.66Q205.94,99.19 206.46,99.44Q206.98,99.69 207.61,99.69Z M216.35,100.93L216.35,100.93Q214.72,100.93 213.81,100.01Q212.89,99.08 212.89,97.4L212.89,97.4Q212.89,96.49 213.23,95.69Q213.56,94.88 214.27,94.37Q214.97,93.87 216.08,93.87L216.08,93.87Q217.11,93.87 217.81,94.34Q218.52,94.81 218.89,95.57Q219.25,96.33 219.25,97.23L219.25,97.23Q219.25,97.48 219.09,97.65Q218.92,97.83 218.64,97.83L218.64,97.83L214.12,97.83Q214.23,98.72 214.8,99.26Q215.37,99.8 216.45,99.8L216.45,99.8Q217.05,99.8 217.47,99.69Q217.88,99.57 218.25,99.39L218.25,99.39Q218.36,99.33 218.49,99.33L218.49,99.33Q218.71,99.33 218.87,99.48Q219.03,99.63 219.03,99.85L219.03,99.85Q219.03,100.01 218.93,100.14Q218.83,100.27 218.68,100.35L218.68,100.35Q218.24,100.6 217.73,100.77Q217.21,100.93 216.35,100.93ZM214.12,96.84L214.12,96.84L218.05,96.84Q218.01,96.15 217.7,95.72Q217.39,95.29 216.95,95.09Q216.51,94.89 216.08,94.89L216.08,94.89Q215.65,94.89 215.21,95.09Q214.77,95.29 214.47,95.72Q214.16,96.15 214.12,96.84Z M223.55,100.93L223.55,100.93Q223.31,100.93 222.99,100.89Q222.66,100.84 222.35,100.67Q222.03,100.51 221.82,100.15Q221.61,99.79 221.61,99.17L221.61,99.17L221.61,95.04L220.66,95.04Q220.41,95.04 220.41,94.79L220.41,94.79Q220.41,94.65 220.53,94.56L220.53,94.56L222.34,92.79Q222.37,92.76 222.43,92.71Q222.49,92.67 222.57,92.67L222.57,92.67Q222.67,92.67 222.75,92.75Q222.82,92.83 222.82,92.93L222.82,92.93L222.82,94L224.33,94Q224.55,94 224.7,94.15Q224.85,94.29 224.85,94.52L224.85,94.52Q224.85,94.73 224.7,94.89Q224.55,95.04 224.33,95.04L224.33,95.04L222.82,95.04L222.82,99.07Q222.82,99.45 222.97,99.63Q223.11,99.8 223.32,99.83Q223.53,99.87 223.69,99.87L223.69,99.87Q224.01,99.87 224.16,99.81Q224.31,99.75 224.49,99.75L224.49,99.75Q224.67,99.75 224.82,99.88Q224.97,100.01 224.97,100.23L224.97,100.23Q224.97,100.53 224.66,100.69L224.66,100.69Q224.42,100.8 224.15,100.87Q223.87,100.93 223.55,100.93Z M233.48,100.93L233.48,100.93Q232.45,100.93 231.68,100.49Q230.9,100.04 230.48,99.25Q230.06,98.45 230.06,97.4L230.06,97.4Q230.06,96.35 230.48,95.55Q230.9,94.76 231.68,94.31Q232.45,93.87 233.48,93.87L233.48,93.87Q234.5,93.87 235.27,94.31Q236.04,94.76 236.46,95.55Q236.89,96.35 236.89,97.4L236.89,97.4Q236.89,98.45 236.46,99.25Q236.04,100.04 235.27,100.49Q234.5,100.93 233.48,100.93ZM233.48,99.83L233.48,99.83Q233.98,99.83 234.49,99.59Q235,99.35 235.34,98.81Q235.68,98.27 235.68,97.39L235.68,97.39Q235.68,96.51 235.34,95.97Q235,95.44 234.49,95.21Q233.98,94.97 233.48,94.97L233.48,94.97Q232.97,94.97 232.46,95.21Q231.94,95.44 231.61,95.97Q231.28,96.51 231.28,97.39L231.28,97.39Q231.28,98.27 231.61,98.81Q231.94,99.35 232.46,99.59Q232.97,99.83 233.48,99.83Z M241.26,100.93L241.26,100.93Q240.5,100.93 239.96,100.58Q239.43,100.23 239.15,99.63Q238.87,99.03 238.87,98.32L238.87,98.32L238.87,94.53Q238.87,94.28 239.05,94.11Q239.23,93.93 239.48,93.93L239.48,93.93Q239.74,93.93 239.91,94.11Q240.08,94.28 240.08,94.53L240.08,94.53L240.08,98.19Q240.08,98.95 240.43,99.38Q240.78,99.81 241.55,99.81L241.55,99.81Q242.27,99.81 242.8,99.42Q243.34,99.03 243.74,98.53L243.74,98.53L243.74,94.53Q243.74,94.28 243.92,94.11Q244.1,93.93 244.35,93.93L244.35,93.93Q244.6,93.93 244.78,94.11Q244.95,94.28 244.95,94.53L244.95,94.53L244.95,100.25Q244.95,100.51 244.78,100.69Q244.6,100.87 244.35,100.87L244.35,100.87Q244.1,100.87 243.92,100.69Q243.74,100.51 243.74,100.25L243.74,100.25L243.74,99.71Q243.32,100.16 242.74,100.55Q242.15,100.93 241.26,100.93Z M249.76,100.93L249.76,100.93Q249.52,100.93 249.19,100.89Q248.86,100.84 248.55,100.67Q248.24,100.51 248.02,100.15Q247.81,99.79 247.81,99.17L247.81,99.17L247.81,95.04L246.86,95.04Q246.61,95.04 246.61,94.79L246.61,94.79Q246.61,94.65 246.73,94.56L246.73,94.56L248.54,92.79Q248.57,92.76 248.63,92.71Q248.69,92.67 248.77,92.67L248.77,92.67Q248.88,92.67 248.95,92.75Q249.02,92.83 249.02,92.93L249.02,92.93L249.02,94L250.53,94Q250.76,94 250.9,94.15Q251.05,94.29 251.05,94.52L251.05,94.52Q251.05,94.73 250.9,94.89Q250.76,95.04 250.53,95.04L250.53,95.04L249.02,95.04L249.02,99.07Q249.02,99.45 249.17,99.63Q249.32,99.8 249.52,99.83Q249.73,99.87 249.89,99.87L249.89,99.87Q250.21,99.87 250.36,99.81Q250.52,99.75 250.69,99.75L250.69,99.75Q250.88,99.75 251.02,99.88Q251.17,100.01 251.17,100.23L251.17,100.23Q251.17,100.53 250.86,100.69L250.86,100.69Q250.62,100.8 250.35,100.87Q250.08,100.93 249.76,100.93Z M255.06,100.93L255.06,100.93Q254.32,100.93 253.73,100.77Q253.14,100.61 252.63,100.33L252.63,100.33Q252.4,100.17 252.4,99.89L252.4,99.89Q252.4,99.69 252.55,99.53Q252.7,99.36 252.92,99.36L252.92,99.36Q253.04,99.36 253.16,99.41L253.16,99.41Q253.52,99.57 253.96,99.69Q254.39,99.81 254.98,99.81L254.98,99.81Q255.75,99.81 256.1,99.57Q256.46,99.32 256.46,98.87L256.46,98.87Q256.46,98.57 256.17,98.41Q255.88,98.25 255.42,98.14Q254.96,98.03 254.46,97.9Q253.95,97.77 253.49,97.55Q253.03,97.33 252.74,96.95Q252.46,96.57 252.46,95.97L252.46,95.97Q252.46,95.07 253.11,94.47Q253.76,93.87 255.06,93.87L255.06,93.87Q255.6,93.87 256.09,93.96Q256.58,94.05 256.99,94.2L256.99,94.2Q257.18,94.25 257.28,94.41Q257.38,94.56 257.38,94.71L257.38,94.71Q257.38,94.92 257.22,95.08Q257.07,95.24 256.84,95.24L256.84,95.24Q256.79,95.24 256.75,95.23Q256.71,95.23 256.67,95.21L256.67,95.21Q256.35,95.11 255.97,95.04Q255.59,94.97 255.15,94.97L255.15,94.97Q254.42,94.97 254.02,95.24Q253.62,95.51 253.62,95.91L253.62,95.91Q253.62,96.25 253.9,96.44Q254.19,96.63 254.65,96.74Q255.11,96.85 255.62,96.97Q256.14,97.09 256.6,97.31Q257.06,97.53 257.34,97.92Q257.63,98.31 257.63,98.96L257.63,98.96Q257.63,99.77 256.98,100.35Q256.34,100.93 255.06,100.93Z M260.27,92.61L260.19,92.61Q259.91,92.61 259.71,92.41Q259.51,92.21 259.51,91.93L259.51,91.93L259.51,91.88Q259.51,91.6 259.71,91.4Q259.91,91.2 260.19,91.2L260.19,91.2L260.27,91.2Q260.55,91.2 260.75,91.4Q260.95,91.6 260.95,91.88L260.95,91.88L260.95,91.93Q260.95,92.21 260.75,92.41Q260.55,92.61 260.27,92.61L260.27,92.61ZM260.21,100.87L260.21,100.87Q259.96,100.87 259.79,100.69Q259.61,100.52 259.61,100.27L259.61,100.27L259.61,94.55Q259.61,94.28 259.79,94.11Q259.96,93.93 260.21,93.93L260.21,93.93Q260.48,93.93 260.65,94.11Q260.83,94.28 260.83,94.55L260.83,94.55L260.83,100.27Q260.83,100.52 260.65,100.69Q260.48,100.87 260.21,100.87Z M266.1,100.93L266.1,100.93Q265.3,100.93 264.56,100.52Q263.82,100.11 263.35,99.32Q262.87,98.53 262.87,97.4L262.87,97.4Q262.87,96.27 263.35,95.48Q263.82,94.69 264.56,94.28Q265.3,93.87 266.1,93.87L266.1,93.87Q266.81,93.87 267.37,94.13Q267.93,94.4 268.38,94.88L268.38,94.88L268.38,91.61Q268.38,91.35 268.56,91.17Q268.74,91 268.99,91L268.99,91Q269.25,91 269.42,91.17Q269.59,91.35 269.59,91.61L269.59,91.61L269.59,100.27Q269.59,100.52 269.42,100.69Q269.25,100.87 268.99,100.87L268.99,100.87Q268.74,100.87 268.56,100.69Q268.38,100.52 268.38,100.27L268.38,100.27L268.38,99.92Q267.93,100.4 267.37,100.67Q266.81,100.93 266.1,100.93ZM266.27,99.8L266.27,99.8Q266.93,99.8 267.46,99.51Q267.99,99.23 268.38,98.8L268.38,98.8L268.38,96Q267.99,95.57 267.46,95.29Q266.93,95 266.27,95L266.27,95Q265.33,95 264.71,95.61Q264.09,96.21 264.09,97.4L264.09,97.4Q264.09,98.57 264.71,99.19Q265.33,99.8 266.27,99.8Z M275.09,100.93L275.09,100.93Q273.47,100.93 272.55,100.01Q271.64,99.08 271.64,97.4L271.64,97.4Q271.64,96.49 271.97,95.69Q272.31,94.88 273.01,94.37Q273.72,93.87 274.83,93.87L274.83,93.87Q275.85,93.87 276.56,94.34Q277.27,94.81 277.63,95.57Q278,96.33 278,97.23L278,97.23Q278,97.48 277.83,97.65Q277.67,97.83 277.39,97.83L277.39,97.83L272.87,97.83Q272.97,98.72 273.55,99.26Q274.12,99.8 275.2,99.8L275.2,99.8Q275.8,99.8 276.21,99.69Q276.63,99.57 277,99.39L277,99.39Q277.11,99.33 277.24,99.33L277.24,99.33Q277.45,99.33 277.61,99.48Q277.77,99.63 277.77,99.85L277.77,99.85Q277.77,100.01 277.67,100.14Q277.57,100.27 277.43,100.35L277.43,100.35Q276.99,100.6 276.47,100.77Q275.96,100.93 275.09,100.93ZM272.87,96.84L272.87,96.84L276.8,96.84Q276.76,96.15 276.45,95.72Q276.13,95.29 275.69,95.09Q275.25,94.89 274.83,94.89L274.83,94.89Q274.4,94.89 273.96,95.09Q273.52,95.29 273.21,95.72Q272.91,96.15 272.87,96.84Z"/></svg>
