<svg xmlns="http://www.w3.org/2000/svg" viewBox="260 12 248 146" aria-hidden="true"><g fill="#417040"><circle cx="461.6" cy="106" r="6.6"/><circle cx="462.6" cy="97.4" r="6.4"/><circle cx="466.6" cy="89.6" r="6.6"/><circle cx="473" cy="84.6" r="6.8"/><circle cx="479" cy="82" r="7"/><circle cx="472" cy="100" r="10"/><circle cx="480" cy="98" r="12"/><circle cx="470" cy="108" r="8"/><circle cx="486" cy="108" r="7"/><circle cx="487" cy="90" r="6"/></g><path d="M262,158 C300,139 350,124.5 400,117.6 C430,114.2 455,113.1 472,113.2 C488,113.4 502,128 506,158Z" fill="#6FB264"/><ellipse cx="414.4" cy="140.4" rx="34.2" ry="6.6" fill="#559653"/><path d="M330.4,107 C330.6,117 331.8,127 332,136.2" stroke="#5E9A58" stroke-width="2.3" stroke-linecap="round" fill="none"/><path d="M330.6,124 Q321.32,125.81 316,118 Q325.28,116.19 330.6,124Z" fill="#5A9A55"/><path d="M330.6,124 Q321.32,125.81 316,118 Q323.07,121.55 330.6,124Z" fill="#7DB872"/><path d="M331.2,124 Q341,124.96 346.2,116.6 Q336.4,115.64 331.2,124Z" fill="#5A9A55"/><path d="M331.2,124 Q341,124.96 346.2,116.6 Q338.97,120.84 331.2,124Z" fill="#7DB872"/><path d="M334.79,102 Q338.13,106.45 343.07,103.89 Q339.73,99.45 334.79,102Z" fill="#E9BC45"/><path d="M333.92,103.81 Q335,109.26 340.56,109.11 Q339.48,103.65 333.92,103.81Z" fill="#E9BC45"/><path d="M332.35,105.05 Q330.96,110.44 336.04,112.71 Q337.43,107.33 332.35,105.05Z" fill="#E9BC45"/><path d="M330.4,105.5 Q326.81,109.75 330.4,114 Q333.99,109.75 330.4,105.5Z" fill="#E9BC45"/><path d="M328.45,105.05 Q323.37,107.33 324.76,112.71 Q329.84,110.44 328.45,105.05Z" fill="#E9BC45"/><path d="M326.88,103.81 Q321.32,103.65 320.24,109.11 Q325.8,109.26 326.88,103.81Z" fill="#E9BC45"/><path d="M326.01,102 Q321.07,99.45 317.73,103.89 Q322.67,106.45 326.01,102Z" fill="#E9BC45"/><path d="M326.01,100 Q322.67,95.55 317.73,98.11 Q321.07,102.55 326.01,100Z" fill="#E9BC45"/><path d="M326.88,98.19 Q325.8,92.74 320.24,92.89 Q321.32,98.35 326.88,98.19Z" fill="#E9BC45"/><path d="M328.45,96.95 Q329.84,91.56 324.76,89.29 Q323.37,94.67 328.45,96.95Z" fill="#E9BC45"/><path d="M330.4,96.5 Q333.99,92.25 330.4,88 Q326.81,92.25 330.4,96.5Z" fill="#E9BC45"/><path d="M332.35,96.95 Q337.43,94.67 336.04,89.29 Q330.96,91.56 332.35,96.95Z" fill="#E9BC45"/><path d="M333.92,98.19 Q339.48,98.35 340.56,92.89 Q335,92.74 333.92,98.19Z" fill="#E9BC45"/><path d="M334.79,100 Q339.73,102.55 343.07,98.11 Q338.13,95.55 334.79,100Z" fill="#E9BC45"/><path d="M334.9,101 Q338.95,104.72 343,101 Q338.95,97.28 334.9,101Z" fill="#F4D46A"/><path d="M334.45,102.95 Q336.49,108.06 341.75,106.47 Q339.72,101.35 334.45,102.95Z" fill="#F4D46A"/><path d="M333.21,104.52 Q332.82,110.01 338.26,110.85 Q338.64,105.36 333.21,104.52Z" fill="#F4D46A"/><path d="M331.4,105.39 Q328.67,110.16 333.2,113.28 Q335.93,108.51 331.4,105.39Z" fill="#F4D46A"/><path d="M329.4,105.39 Q324.87,108.51 327.6,113.28 Q332.13,110.16 329.4,105.39Z" fill="#F4D46A"/><path d="M327.59,104.52 Q322.16,105.36 322.54,110.85 Q327.98,110.01 327.59,104.52Z" fill="#F4D46A"/><path d="M326.35,102.95 Q321.08,101.35 319.05,106.47 Q324.31,108.06 326.35,102.95Z" fill="#F4D46A"/><path d="M325.9,101 Q321.85,97.28 317.8,101 Q321.85,104.72 325.9,101Z" fill="#F4D46A"/><path d="M326.35,99.05 Q324.31,93.94 319.05,95.53 Q321.08,100.65 326.35,99.05Z" fill="#F4D46A"/><path d="M327.59,97.48 Q327.98,91.99 322.54,91.15 Q322.16,96.64 327.59,97.48Z" fill="#F4D46A"/><path d="M329.4,96.61 Q332.13,91.84 327.6,88.72 Q324.87,93.49 329.4,96.61Z" fill="#F4D46A"/><path d="M331.4,96.61 Q335.93,93.49 333.2,88.72 Q328.67,91.84 331.4,96.61Z" fill="#F4D46A"/><path d="M333.21,97.48 Q338.64,96.64 338.26,91.15 Q332.82,91.99 333.21,97.48Z" fill="#F4D46A"/><path d="M334.45,99.05 Q339.72,100.65 341.75,95.53 Q336.49,93.94 334.45,99.05Z" fill="#F4D46A"/><circle cx="330.4" cy="101" r="6.9" fill="#8F5A2E"/><circle cx="330.53" cy="102.52" r="0.6" fill="#6E4220"/><circle cx="326.35" cy="98.7" r="0.6" fill="#6E4220"/><circle cx="328.94" cy="101.65" r="0.6" fill="#6E4220"/><circle cx="332.33" cy="104.04" r="0.6" fill="#6E4220"/><circle cx="333.77" cy="103.92" r="0.6" fill="#6E4220"/><circle cx="327.17" cy="100.66" r="0.6" fill="#6E4220"/><circle cx="327.48" cy="99.23" r="0.6" fill="#6E4220"/><circle cx="334.7" cy="99.79" r="0.6" fill="#6E4220"/><circle cx="328.75" cy="98.77" r="0.6" fill="#6E4220"/><circle cx="329.25" cy="105.18" r="0.6" fill="#6E4220"/><circle cx="330.6" cy="100.97" r="0.6" fill="#6E4220"/><circle cx="329.29" cy="103.61" r="0.6" fill="#6E4220"/><circle cx="326.18" cy="98.5" r="0.6" fill="#6E4220"/><circle cx="330.92" cy="97.47" r="0.6" fill="#6E4220"/><circle cx="330.16" cy="100.13" r="0.6" fill="#6E4220"/><circle cx="333.08" cy="102.72" r="0.6" fill="#6E4220"/><circle cx="334.24" cy="99.24" r="0.6" fill="#6E4220"/><circle cx="328.78" cy="99.27" r="0.6" fill="#6E4220"/><path d="M302.43,139.25C302.42,139.17 302.37,138.93 302.33,138.78C302.29,138.62 302.25,138.47 302.2,138.31C302.16,138.16 302.11,138.01 302.05,137.87C301.99,137.72 301.93,137.58 301.87,137.44C301.8,137.3 301.73,137.17 301.66,137.04C301.58,136.9 301.51,136.78 301.43,136.65C301.35,136.53 301.27,136.4 301.19,136.29C301.11,136.17 301.03,136.05 300.94,135.94C300.86,135.82 300.78,135.71 300.7,135.6C300.62,135.49 300.55,135.38 300.47,135.27C300.39,135.16 300.31,135.06 300.22,134.96C300.14,134.86 300.06,134.76 299.98,134.66C299.89,134.56 299.81,134.47 299.72,134.38C299.63,134.29 299.5,134.15 299.46,134.11L299.65,134.43C299.68,134.48 299.77,134.65 299.83,134.76C299.88,134.87 299.94,134.99 299.99,135.1C300.04,135.22 300.09,135.33 300.14,135.45C300.19,135.57 300.24,135.69 300.29,135.82C300.33,135.94 300.36,136.07 300.4,136.2C300.43,136.33 300.46,136.46 300.49,136.59C300.52,136.72 300.54,136.86 300.57,136.99C300.59,137.13 300.62,137.26 300.64,137.4C300.67,137.54 300.69,137.68 300.72,137.82C300.74,137.96 300.77,138.1 300.8,138.24C300.82,138.38 300.85,138.52 300.88,138.66C300.91,138.81 300.95,138.95 300.98,139.1C301.01,139.25 301.07,139.48 301.09,139.55Z M304.38,139.41C304.38,139.3 304.39,138.97 304.39,138.76C304.39,138.55 304.39,138.35 304.38,138.14C304.38,137.94 304.37,137.74 304.36,137.54C304.35,137.34 304.33,137.14 304.31,136.95C304.3,136.76 304.27,136.57 304.25,136.38C304.23,136.19 304.2,136.01 304.18,135.83C304.15,135.65 304.13,135.47 304.1,135.29C304.08,135.12 304.05,134.94 304.03,134.77C304.01,134.6 303.99,134.44 303.97,134.27C303.96,134.11 303.95,133.95 303.94,133.79C303.93,133.63 303.91,133.48 303.9,133.33C303.89,133.18 303.88,133.03 303.88,132.88C303.87,132.74 303.86,132.59 303.85,132.45C303.84,132.31 303.83,132.11 303.83,132.04L303.75,132.45C303.74,132.52 303.7,132.72 303.67,132.87C303.65,133.01 303.62,133.16 303.59,133.31C303.57,133.46 303.54,133.62 303.52,133.77C303.49,133.93 303.47,134.09 303.44,134.25C303.41,134.41 303.38,134.58 303.34,134.75C303.31,134.92 303.27,135.09 303.24,135.26C303.2,135.44 303.16,135.62 303.13,135.8C303.09,135.98 303.06,136.16 303.03,136.35C303,136.54 302.97,136.73 302.94,136.92C302.92,137.12 302.9,137.31 302.88,137.51C302.86,137.71 302.85,137.92 302.84,138.12C302.83,138.33 302.82,138.54 302.82,138.75C302.81,138.96 302.82,139.29 302.82,139.39Z M306.11,139.58C306.13,139.51 306.18,139.3 306.22,139.17C306.26,139.03 306.29,138.91 306.33,138.78C306.36,138.65 306.4,138.52 306.43,138.39C306.46,138.26 306.49,138.13 306.52,138C306.55,137.88 306.58,137.75 306.61,137.62C306.64,137.5 306.66,137.37 306.69,137.25C306.73,137.12 306.76,137 306.79,136.87C306.82,136.75 306.86,136.63 306.9,136.51C306.94,136.39 306.98,136.27 307.03,136.15C307.08,136.04 307.14,135.93 307.19,135.82C307.25,135.71 307.31,135.6 307.37,135.49C307.43,135.38 307.49,135.28 307.55,135.17C307.62,135.07 307.69,134.97 307.75,134.87C307.82,134.77 307.93,134.62 307.97,134.57L307.69,134.81C307.64,134.85 307.51,134.98 307.42,135.06C307.32,135.15 307.24,135.24 307.15,135.33C307.06,135.42 306.97,135.51 306.89,135.61C306.8,135.7 306.72,135.81 306.64,135.9C306.55,136 306.46,136.1 306.38,136.21C306.29,136.31 306.2,136.41 306.11,136.52C306.03,136.62 305.94,136.73 305.86,136.85C305.78,136.96 305.69,137.07 305.62,137.19C305.54,137.31 305.46,137.44 305.39,137.56C305.32,137.69 305.26,137.82 305.2,137.95C305.13,138.08 305.08,138.22 305.03,138.36C304.97,138.5 304.93,138.64 304.89,138.79C304.84,138.93 304.79,139.15 304.77,139.22Z" fill="#559653"/><path d="M358.19,145.87C358.17,145.8 358.13,145.59 358.1,145.46C358.06,145.32 358.03,145.19 357.99,145.06C357.95,144.92 357.9,144.79 357.85,144.67C357.8,144.54 357.75,144.42 357.69,144.3C357.63,144.18 357.57,144.06 357.51,143.94C357.45,143.83 357.38,143.72 357.31,143.61C357.25,143.5 357.18,143.4 357.1,143.29C357.03,143.19 356.96,143.09 356.89,142.99C356.82,142.89 356.75,142.79 356.68,142.7C356.61,142.6 356.54,142.5 356.47,142.41C356.41,142.32 356.34,142.23 356.26,142.14C356.19,142.05 356.12,141.96 356.05,141.88C355.98,141.79 355.9,141.71 355.83,141.63C355.75,141.55 355.64,141.44 355.6,141.4L355.77,141.68C355.79,141.73 355.87,141.87 355.92,141.97C355.97,142.06 356.02,142.16 356.06,142.26C356.11,142.36 356.15,142.47 356.19,142.57C356.24,142.67 356.28,142.78 356.32,142.88C356.35,142.99 356.39,143.1 356.42,143.21C356.45,143.33 356.47,143.44 356.5,143.56C356.52,143.67 356.54,143.79 356.56,143.91C356.59,144.02 356.61,144.14 356.63,144.26C356.65,144.38 356.67,144.5 356.69,144.62C356.71,144.74 356.74,144.87 356.76,144.99C356.79,145.11 356.81,145.24 356.84,145.36C356.86,145.48 356.89,145.61 356.92,145.74C356.95,145.87 357,146.07 357.01,146.13Z M359.88,146C359.88,145.91 359.89,145.63 359.89,145.45C359.89,145.26 359.89,145.08 359.88,144.91C359.88,144.73 359.87,144.55 359.86,144.38C359.85,144.21 359.84,144.04 359.82,143.87C359.8,143.7 359.79,143.54 359.77,143.37C359.75,143.21 359.72,143.05 359.7,142.89C359.68,142.74 359.66,142.58 359.64,142.43C359.61,142.28 359.59,142.12 359.57,141.98C359.55,141.83 359.54,141.68 359.52,141.54C359.51,141.4 359.5,141.26 359.49,141.12C359.48,140.99 359.47,140.85 359.46,140.72C359.46,140.59 359.45,140.46 359.44,140.33C359.43,140.2 359.42,140.08 359.42,139.96C359.41,139.84 359.4,139.66 359.4,139.6L359.33,139.95C359.32,140.01 359.29,140.2 359.26,140.32C359.24,140.45 359.22,140.57 359.2,140.71C359.17,140.84 359.15,140.97 359.13,141.11C359.11,141.24 359.09,141.38 359.06,141.52C359.04,141.67 359.01,141.81 358.98,141.96C358.95,142.1 358.91,142.25 358.88,142.4C358.85,142.56 358.82,142.71 358.79,142.87C358.76,143.03 358.73,143.19 358.7,143.35C358.68,143.51 358.65,143.68 358.63,143.85C358.61,144.02 358.59,144.19 358.57,144.36C358.56,144.53 358.54,144.71 358.54,144.89C358.53,145.07 358.52,145.25 358.52,145.44C358.52,145.62 358.52,145.9 358.52,146Z M361.38,146.16C361.4,146.1 361.45,145.92 361.48,145.8C361.51,145.68 361.54,145.57 361.57,145.46C361.6,145.34 361.63,145.23 361.66,145.12C361.69,145.01 361.71,144.9 361.74,144.79C361.76,144.68 361.79,144.57 361.81,144.46C361.84,144.35 361.86,144.24 361.89,144.13C361.92,144.02 361.94,143.91 361.97,143.8C362,143.7 362.03,143.59 362.07,143.48C362.1,143.38 362.14,143.28 362.18,143.18C362.23,143.08 362.28,142.98 362.32,142.89C362.37,142.79 362.42,142.69 362.48,142.6C362.53,142.51 362.58,142.42 362.64,142.33C362.69,142.24 362.75,142.15 362.81,142.06C362.87,141.97 362.97,141.84 363,141.8L362.76,142.01C362.72,142.04 362.6,142.15 362.52,142.23C362.44,142.3 362.36,142.38 362.28,142.46C362.21,142.54 362.13,142.62 362.06,142.7C361.98,142.79 361.91,142.87 361.84,142.96C361.77,143.05 361.69,143.13 361.61,143.22C361.54,143.31 361.46,143.4 361.39,143.49C361.31,143.59 361.24,143.68 361.16,143.78C361.09,143.88 361.02,143.98 360.95,144.08C360.89,144.19 360.82,144.29 360.76,144.4C360.7,144.51 360.64,144.62 360.59,144.74C360.53,144.86 360.49,144.97 360.44,145.1C360.4,145.22 360.35,145.34 360.32,145.47C360.28,145.59 360.24,145.78 360.22,145.84Z" fill="#559653"/><path d="M462.93,129.86C462.92,129.79 462.88,129.57 462.84,129.43C462.81,129.29 462.77,129.15 462.73,129.01C462.68,128.87 462.64,128.73 462.58,128.6C462.53,128.47 462.48,128.34 462.42,128.21C462.36,128.09 462.29,127.96 462.23,127.84C462.16,127.72 462.09,127.6 462.02,127.49C461.95,127.38 461.87,127.26 461.8,127.16C461.73,127.05 461.65,126.94 461.57,126.84C461.5,126.73 461.43,126.63 461.35,126.53C461.28,126.43 461.21,126.33 461.14,126.23C461.07,126.13 460.99,126.04 460.92,125.94C460.84,125.85 460.77,125.76 460.69,125.67C460.61,125.58 460.54,125.5 460.46,125.41C460.38,125.33 460.26,125.21 460.22,125.17L460.39,125.46C460.42,125.51 460.5,125.66 460.56,125.76C460.61,125.87 460.66,125.97 460.71,126.08C460.75,126.18 460.8,126.29 460.84,126.4C460.89,126.51 460.93,126.61 460.97,126.73C461.01,126.84 461.05,126.96 461.08,127.07C461.11,127.19 461.13,127.31 461.16,127.43C461.19,127.56 461.21,127.68 461.23,127.8C461.26,127.93 461.28,128.05 461.3,128.18C461.32,128.3 461.34,128.43 461.37,128.55C461.39,128.68 461.41,128.81 461.44,128.94C461.46,129.07 461.49,129.2 461.52,129.33C461.55,129.46 461.58,129.59 461.61,129.72C461.64,129.86 461.69,130.07 461.71,130.14Z M464.71,130C464.72,129.91 464.72,129.61 464.72,129.42C464.72,129.23 464.72,129.04 464.72,128.85C464.71,128.66 464.7,128.48 464.69,128.3C464.68,128.12 464.67,127.94 464.65,127.76C464.63,127.59 464.62,127.41 464.59,127.24C464.57,127.07 464.55,126.9 464.53,126.74C464.51,126.57 464.48,126.41 464.46,126.25C464.44,126.09 464.41,125.93 464.39,125.78C464.37,125.62 464.35,125.47 464.34,125.32C464.32,125.17 464.32,125.02 464.31,124.88C464.3,124.74 464.29,124.59 464.28,124.46C464.27,124.32 464.26,124.18 464.25,124.05C464.24,123.91 464.24,123.78 464.23,123.66C464.22,123.53 464.21,123.34 464.21,123.28L464.14,123.65C464.13,123.71 464.09,123.91 464.07,124.04C464.04,124.17 464.02,124.3 464,124.44C463.97,124.58 463.95,124.72 463.92,124.86C463.9,125.01 463.88,125.15 463.85,125.3C463.83,125.45 463.8,125.6 463.77,125.75C463.74,125.91 463.7,126.06 463.67,126.22C463.63,126.38 463.6,126.55 463.57,126.71C463.54,126.88 463.51,127.05 463.48,127.22C463.45,127.39 463.42,127.56 463.4,127.74C463.38,127.92 463.36,128.1 463.34,128.28C463.32,128.46 463.31,128.65 463.3,128.83C463.29,129.02 463.29,129.21 463.29,129.41C463.28,129.6 463.29,129.9 463.29,130Z M466.29,130.16C466.31,130.1 466.36,129.91 466.39,129.79C466.43,129.67 466.46,129.55 466.49,129.43C466.52,129.31 466.55,129.19 466.58,129.08C466.61,128.96 466.64,128.84 466.67,128.73C466.69,128.61 466.72,128.49 466.74,128.38C466.77,128.26 466.8,128.15 466.83,128.03C466.85,127.92 466.88,127.8 466.91,127.69C466.94,127.58 466.98,127.47 467.01,127.36C467.05,127.25 467.09,127.14 467.13,127.04C467.18,126.93 467.23,126.83 467.28,126.73C467.33,126.63 467.38,126.53 467.44,126.43C467.49,126.33 467.55,126.24 467.61,126.14C467.67,126.05 467.73,125.95 467.79,125.86C467.86,125.77 467.96,125.64 467.99,125.59L467.73,125.81C467.69,125.85 467.57,125.96 467.48,126.04C467.4,126.12 467.32,126.2 467.24,126.28C467.16,126.37 467.08,126.45 467,126.54C466.92,126.63 466.85,126.72 466.77,126.81C466.69,126.9 466.61,126.99 466.53,127.08C466.45,127.18 466.37,127.27 466.29,127.37C466.22,127.47 466.14,127.57 466.06,127.67C465.99,127.77 465.91,127.88 465.84,127.99C465.77,128.09 465.7,128.21 465.64,128.32C465.57,128.44 465.51,128.56 465.46,128.68C465.4,128.8 465.35,128.92 465.3,129.05C465.26,129.18 465.21,129.31 465.17,129.44C465.14,129.57 465.09,129.77 465.07,129.84Z" fill="#559653"/><path d="M361.4,80.2 L365.2,86.6" stroke="#353D3C" stroke-width="2.2" stroke-linecap="round"/><path d="M365,86.4 L371,95.6" stroke="#353D3C" stroke-width="3.6" stroke-linecap="round"/><path d="M418.82,72.7C420.52,74.13 425.08,75.32 428.15,77.08C431.22,78.84 435.24,82.34 437.24,83.25C439.24,84.17 439.7,83.16 440.16,82.54C440.61,81.92 441.48,81.22 439.96,79.55C438.44,77.88 434.05,74.63 431.05,72.52C428.05,70.42 424.16,67.58 421.98,66.9C419.79,66.23 418.49,67.51 417.96,68.48C417.44,69.44 417.13,71.27 418.82,72.7Z M440.96,85.15C441.6,85.34 442.9,85.12 443.87,85.1C444.83,85.08 446.16,85.2 446.77,85.05C447.38,84.9 447.5,84.51 447.51,84.22C447.52,83.94 447.43,83.54 446.83,83.35C446.23,83.16 444.9,83.18 443.93,83.1C442.97,83.02 441.69,82.71 441.04,82.85C440.39,83 440.05,83.58 440.03,83.97C440.02,84.35 440.32,84.96 440.96,85.15Z M440.47,85.02C440.99,85.48 442.32,85.87 443.24,86.29C444.16,86.71 445.38,87.41 446.01,87.55C446.64,87.69 446.9,87.38 447.03,87.13C447.16,86.88 447.27,86.48 446.79,86.05C446.31,85.61 445.04,85.02 444.16,84.51C443.28,84 442.2,83.14 441.53,82.98C440.86,82.82 440.32,83.22 440.14,83.56C439.97,83.9 439.95,84.57 440.47,85.02Z M440.08,84.7C440.37,85.34 441.43,86.3 442.1,87.11C442.78,87.91 443.6,89.1 444.12,89.51C444.64,89.92 445.01,89.74 445.23,89.57C445.46,89.4 445.73,89.1 445.48,88.49C445.22,87.87 444.29,86.76 443.7,85.89C443.1,85.03 442.46,83.75 441.92,83.3C441.37,82.86 440.72,83 440.42,83.23C440.11,83.46 439.8,84.05 440.08,84.7Z M439.87,84.19C439.81,84.88 440.3,86.17 440.51,87.16C440.73,88.16 440.89,89.55 441.16,90.14C441.43,90.73 441.84,90.75 442.12,90.7C442.4,90.66 442.78,90.51 442.84,89.86C442.9,89.22 442.6,87.84 442.49,86.84C442.37,85.83 442.41,84.44 442.13,83.81C441.86,83.18 441.22,82.98 440.84,83.05C440.46,83.11 439.92,83.5 439.87,84.19Z M438.29,84.09C437.82,84.43 437.29,85.42 436.95,86.08C436.6,86.74 436.26,87.56 436.22,88.05C436.18,88.55 436.45,88.94 436.71,89.05C436.97,89.17 437.45,89.07 437.78,88.75C438.1,88.42 438.26,87.66 438.65,87.12C439.04,86.58 439.92,86.02 440.11,85.51C440.3,84.99 440.1,84.27 439.79,84.04C439.49,83.8 438.77,83.75 438.29,84.09Z" fill="#F4AF8A"/><ellipse cx="440.8" cy="84.2" rx="3.7" ry="3.1" transform="rotate(40 440.8 84.2)" fill="#F4AF8A"/><path d="M388.80,73.14C388.71,73.42 388.58,73.95 388.60,74.35C388.61,74.75 388.19,74.04 388.87,75.54C389.56,77.04 391.73,81.49 392.71,83.35C393.69,85.22 394.08,85.88 394.75,86.74C395.43,87.59 396.24,87.94 396.75,88.46C397.27,88.99 397.29,88.98 397.85,89.88C398.41,90.78 399.47,92.58 400.10,93.88C400.72,95.17 401.25,96.93 401.58,97.67C401.91,98.41 401.86,98.13 402.07,98.33C402.27,98.52 402.03,98.56 402.83,98.82C403.63,99.07 405.49,99.64 406.88,99.86C408.26,100.07 409.73,100.09 411.12,100.11C412.52,100.13 413.79,100.12 415.25,99.95C416.71,99.79 418.58,99.45 419.88,99.14C421.17,98.82 421.83,98.58 423.00,98.07C424.17,97.57 425.47,96.97 426.88,96.11C428.28,95.26 430.47,93.70 431.42,92.95C432.37,92.19 432.34,91.96 432.57,91.57C432.79,91.18 432.77,90.96 432.78,90.62C432.80,90.27 432.89,90.19 432.67,89.50C432.44,88.81 432.17,87.88 431.42,86.50C430.68,85.12 429.17,82.68 428.19,81.25C427.20,79.82 426.16,78.63 425.51,77.89C424.86,77.15 425.38,77.51 424.31,76.81C423.24,76.12 420.08,74.22 419.07,73.72C418.07,73.23 418.65,73.59 418.26,73.86C417.88,74.13 417.24,75.05 416.74,75.32C416.24,75.59 416.29,75.62 415.25,75.49C414.21,75.36 411.79,74.83 410.50,74.52C409.21,74.21 408.35,73.94 407.50,73.65C406.65,73.36 405.98,73.09 405.38,72.76C404.78,72.44 404.31,72.13 403.88,71.71C403.46,71.29 403.09,70.79 402.82,70.24C402.54,69.68 402.33,69.02 402.23,68.38C402.13,67.73 402.10,67.15 402.23,66.38C402.37,65.60 402.92,64.27 403.04,63.74C403.16,63.22 403.03,63.36 402.95,63.22C402.87,63.09 402.80,62.97 402.56,62.92C402.31,62.86 401.95,62.81 401.49,62.88C401.02,62.96 400.24,63.21 399.77,63.38C399.29,63.54 398.95,63.68 398.61,63.88C398.28,64.09 398.02,64.25 397.75,64.63C397.48,65.00 397.13,65.48 396.98,66.13C396.83,66.77 396.93,67.92 396.86,68.50C396.79,69.08 396.74,69.22 396.57,69.62C396.40,70.03 396.10,70.58 395.83,70.94C395.56,71.31 395.24,71.60 394.93,71.84C394.63,72.07 394.31,72.23 393.99,72.35C393.67,72.48 393.73,72.57 393.00,72.58C392.27,72.59 390.28,72.41 389.63,72.43C388.99,72.44 389.26,72.55 389.13,72.67C388.99,72.79 388.88,72.86 388.80,73.14Z" fill="#8DBE90"/><path d="M403.14,63.43C402.79,63.90 402.23,64.76 402.00,65.50C401.77,66.24 401.69,67.06 401.76,67.88C401.82,68.69 402.17,69.77 402.38,70.36C402.59,70.95 402.79,71.11 403.04,71.42C403.28,71.72 403.23,71.83 403.83,72.21C404.43,72.60 405.41,73.25 406.62,73.72C407.84,74.19 409.58,74.67 411.12,75.03C412.67,75.40 414.90,75.80 415.87,75.92C416.83,76.03 416.60,75.87 416.91,75.73C417.22,75.59 417.50,75.36 417.73,75.08C417.96,74.81 418.10,74.53 418.28,74.10C418.46,73.67 418.53,73.81 418.81,72.50C419.09,71.19 419.80,67.49 419.98,66.25C420.16,65.02 420.02,65.41 419.90,65.07C419.77,64.72 419.55,64.44 419.25,64.19C418.95,63.94 418.68,63.78 418.12,63.56C417.55,63.34 417.27,63.15 415.88,62.88C414.48,62.60 411.17,62.06 409.75,61.90C408.33,61.75 408.08,61.88 407.38,61.93C406.67,61.98 406.05,62.08 405.50,62.21C404.96,62.33 404.48,62.48 404.09,62.68C403.69,62.89 403.48,62.96 403.14,63.43Z" fill="#5E9E62"/><path d="M387.73,72.82C387.57,72.88 387.41,73.01 387.32,73.14C387.22,73.27 387.11,73.32 387.14,73.61C387.17,73.90 387.45,74.59 387.51,74.88C387.56,75.18 387.53,75.21 387.45,75.38C387.36,75.56 387.32,75.65 387.00,75.92C386.68,76.18 385.94,76.52 385.50,76.96C385.06,77.40 384.70,77.92 384.36,78.53C384.02,79.14 383.61,80.03 383.48,80.62C383.35,81.21 383.32,81.49 383.57,82.06C383.82,82.63 384.44,83.47 384.97,84.03C385.50,84.58 385.65,84.77 386.76,85.41C387.87,86.05 390.63,87.43 391.62,87.88C392.62,88.34 392.40,88.11 392.74,88.12C393.08,88.14 393.41,88.07 393.66,87.99C393.90,87.90 394.06,87.77 394.21,87.62C394.36,87.46 394.49,87.26 394.56,87.05C394.63,86.84 394.68,86.62 394.66,86.36C394.64,86.11 394.91,86.41 394.47,85.51C394.02,84.62 392.78,82.54 391.99,81.00C391.19,79.46 390.23,77.57 389.69,76.26C389.16,74.95 388.99,73.71 388.76,73.13C388.53,72.55 388.49,72.83 388.32,72.78C388.15,72.72 387.90,72.76 387.73,72.82Z" fill="#5E9E62"/><path d="M397.17,107.31C396.16,109.82 395.77,116 394.88,120.35C393.99,124.7 392.03,130.77 391.83,133.38C391.63,135.99 392.89,135.78 393.68,135.99C394.47,136.2 395.46,137.01 396.57,134.62C397.68,132.23 399.15,125.97 400.32,121.65C401.5,117.33 403.52,111.42 403.63,108.69C403.74,105.97 402.06,105.52 400.98,105.29C399.91,105.06 398.19,104.8 397.17,107.31Z M423.62,111.38C423.83,113.87 426.1,119.05 427.31,122.77C428.51,126.48 429.77,131.65 430.85,133.68C431.93,135.72 432.99,135.2 433.77,134.98C434.56,134.75 435.73,134.61 435.55,132.32C435.37,130.03 433.62,125.02 432.69,121.23C431.76,117.45 431.09,111.85 429.98,109.62C428.87,107.38 427.12,107.53 426.06,107.83C425,108.12 423.41,108.9 423.62,111.38Z" fill="#F4AF8A"/><path d="M433.76,95.00C433.52,94.41 433.00,93.67 432.73,93.33C432.46,92.99 432.34,93.03 432.13,92.96C431.92,92.88 431.77,92.81 431.46,92.88C431.14,92.95 431.03,92.87 430.25,93.35C429.46,93.83 427.77,95.12 426.75,95.76C425.73,96.39 425.00,96.74 424.12,97.15C423.25,97.57 422.38,97.96 421.50,98.27C420.62,98.57 419.94,98.76 418.88,98.98C417.81,99.21 416.31,99.47 415.12,99.59C413.94,99.72 413.00,99.75 411.75,99.74C410.50,99.74 408.96,99.73 407.62,99.57C406.29,99.42 404.60,98.94 403.76,98.82C402.93,98.71 402.95,98.78 402.62,98.89C402.28,98.99 402.17,99.06 401.74,99.46C401.30,99.85 400.70,100.39 400.01,101.23C399.32,102.07 398.15,103.66 397.60,104.50C397.05,105.34 396.86,105.73 396.72,106.25C396.59,106.77 396.58,107.06 396.79,107.62C396.99,108.19 397.46,108.97 397.94,109.62C398.42,110.28 399.21,111.13 399.68,111.56C400.15,112.00 400.09,111.93 400.76,112.23C401.42,112.54 402.81,112.84 403.68,113.39C404.54,113.95 405.32,115.09 405.93,115.58C406.53,116.07 406.91,116.20 407.31,116.32C407.71,116.43 408.00,116.39 408.33,116.29C408.67,116.19 408.71,116.39 409.34,115.71C409.97,115.04 411.35,113.27 412.12,112.25C412.90,111.23 413.52,110.15 413.99,109.57C414.45,109.00 414.59,109.00 414.91,108.81C415.23,108.61 415.65,108.47 415.90,108.42C416.16,108.37 416.28,108.43 416.43,108.53C416.58,108.63 416.62,108.28 416.79,109.03C416.95,109.77 417.29,111.96 417.42,113.00C417.55,114.04 417.49,114.79 417.57,115.28C417.64,115.76 417.74,115.75 417.87,115.92C418.00,116.09 417.79,116.14 418.37,116.29C418.95,116.45 420.60,116.74 421.38,116.84C422.15,116.93 422.38,116.93 423.00,116.87C423.62,116.80 424.33,116.67 425.12,116.45C425.92,116.23 426.93,115.76 427.75,115.54C428.57,115.32 429.08,115.43 430.07,115.10C431.05,114.77 432.98,113.92 433.66,113.58C434.34,113.25 434.02,113.29 434.14,113.06C434.27,112.84 434.35,112.69 434.41,112.22C434.47,111.75 434.55,111.08 434.50,110.25C434.45,109.42 434.09,108.25 434.09,107.25C434.09,106.25 434.43,105.21 434.50,104.25C434.56,103.29 434.53,102.73 434.48,101.50C434.42,100.27 434.28,97.96 434.16,96.88C434.04,95.79 433.99,95.59 433.76,95.00Z" fill="#2C5132"/><ellipse cx="376.5" cy="56.5" rx="15.5" ry="15" fill="#F4AF8A"/><path d="M361.57,87.00C361.54,87.42 361.51,87.59 361.80,88.34C362.08,89.08 362.89,90.74 363.28,91.46C363.67,92.19 363.86,92.36 364.15,92.67C364.44,92.98 364.77,93.19 365.03,93.31C365.29,93.42 365.49,93.40 365.71,93.35C365.94,93.30 365.99,93.30 366.38,92.99C366.77,92.68 367.69,91.89 368.05,91.50C368.41,91.11 368.49,90.96 368.55,90.64C368.61,90.31 368.56,89.90 368.42,89.56C368.29,89.21 367.98,88.82 367.74,88.58C367.49,88.35 367.32,88.24 366.93,88.14C366.55,88.04 365.73,88.06 365.43,87.98C365.13,87.91 365.19,87.84 365.14,87.70C365.09,87.56 365.08,87.33 365.13,87.14C365.18,86.95 365.31,86.72 365.44,86.57C365.57,86.42 365.72,86.32 365.92,86.25C366.12,86.18 366.36,86.11 366.64,86.15C366.92,86.18 367.31,86.28 367.62,86.46C367.93,86.64 367.82,86.33 368.50,87.23C369.17,88.13 370.97,90.92 371.66,91.85C372.35,92.78 371.74,92.45 372.65,92.82C373.56,93.19 375.73,93.76 377.12,94.06C378.52,94.36 380.08,94.55 381.00,94.64C381.92,94.73 382.02,94.66 382.62,94.60C383.23,94.54 383.81,94.51 384.62,94.27C385.44,94.03 386.77,93.51 387.50,93.15C388.22,92.80 388.52,92.50 388.97,92.13C389.42,91.77 389.85,91.34 390.20,90.94C390.55,90.55 390.88,90.13 391.09,89.75C391.29,89.37 391.42,89.00 391.45,88.67C391.47,88.35 391.40,88.09 391.23,87.81C391.06,87.53 391.14,87.45 390.44,87.00C389.73,86.55 387.90,85.65 387.01,85.12C386.12,84.59 385.55,84.07 385.11,83.82C384.68,83.56 384.65,83.59 384.40,83.59C384.16,83.58 384.13,83.52 383.65,83.77C383.17,84.02 382.06,84.78 381.50,85.09C380.93,85.40 380.75,85.47 380.25,85.63C379.75,85.80 379.06,85.98 378.50,86.08C377.94,86.17 377.56,86.25 376.88,86.19C376.19,86.14 375.46,86.16 374.38,85.75C373.29,85.34 371.35,84.18 370.38,83.74C369.40,83.30 369.00,83.23 368.50,83.11C368.01,83.00 368.35,82.75 367.40,83.06C366.45,83.36 363.72,84.48 362.81,84.94C361.90,85.39 362.18,85.46 361.97,85.80C361.76,86.14 361.60,86.57 361.57,87.00Z M405.84,48.79C405.69,48.61 405.43,48.39 405.16,48.24C404.89,48.10 404.54,47.97 404.24,47.90C403.95,47.84 403.66,47.81 403.39,47.85C403.11,47.88 402.86,47.90 402.58,48.11C402.29,48.31 401.88,48.53 401.66,49.08C401.44,49.62 401.37,50.96 401.27,51.40C401.16,51.84 401.12,51.66 401.03,51.71C400.94,51.76 400.89,51.85 400.75,51.68C400.62,51.52 400.33,51.14 400.23,50.71C400.13,50.28 400.12,49.57 400.16,49.13C400.20,48.68 400.23,48.54 400.49,48.02C400.75,47.51 401.51,46.47 401.73,46.04C401.95,45.61 401.83,45.63 401.80,45.45C401.77,45.27 401.73,45.10 401.54,44.98C401.36,44.86 401.02,44.71 400.70,44.72C400.39,44.73 400.01,44.85 399.67,45.06C399.33,45.26 399.09,45.40 398.66,45.95C398.24,46.51 397.52,47.93 397.13,48.38C396.74,48.83 396.61,48.64 396.32,48.65C396.03,48.66 395.84,48.67 395.37,48.44C394.90,48.20 394.17,47.79 393.50,47.25C392.84,46.71 391.98,45.86 391.39,45.19C390.80,44.53 390.54,44.18 389.98,43.25C389.42,42.32 388.43,40.30 388.03,39.61C387.64,38.93 387.75,39.24 387.59,39.14C387.42,39.03 387.27,38.95 387.04,38.98C386.82,39.01 386.74,38.91 386.22,39.34C385.71,39.77 384.57,41.06 383.95,41.57C383.33,42.08 382.93,42.27 382.50,42.42C382.08,42.57 381.90,42.61 381.41,42.48C380.91,42.34 379.97,41.75 379.52,41.62C379.07,41.50 379.28,41.25 378.69,41.70C378.10,42.15 376.68,43.75 375.98,44.33C375.28,44.91 374.91,45.04 374.50,45.20C374.09,45.37 374.01,45.41 373.51,45.30C373.01,45.18 371.97,44.64 371.50,44.52C371.02,44.40 371.24,44.13 370.65,44.59C370.05,45.05 368.69,46.67 367.93,47.29C367.18,47.91 366.64,48.12 366.13,48.31C365.62,48.49 365.36,48.59 364.86,48.39C364.36,48.19 363.59,47.32 363.14,47.11C362.68,46.89 362.51,46.94 362.11,47.13C361.71,47.32 361.05,47.95 360.75,48.25C360.46,48.55 360.44,48.70 360.35,48.93C360.26,49.16 360.21,49.41 360.21,49.65C360.22,49.89 360.27,50.12 360.37,50.38C360.48,50.64 360.54,50.87 360.86,51.23C361.18,51.59 361.93,52.28 362.31,52.53C362.69,52.78 362.64,52.76 363.14,52.73C363.64,52.69 364.82,52.37 365.31,52.34C365.80,52.30 365.95,52.41 366.07,52.52C366.20,52.62 366.23,52.61 366.06,52.96C365.88,53.31 365.18,54.20 365.01,54.62C364.83,55.04 364.95,55.28 365.02,55.50C365.09,55.73 365.06,55.72 365.42,55.96C365.79,56.20 366.75,56.63 367.20,56.92C367.65,57.22 367.86,57.38 368.11,57.73C368.35,58.07 368.60,58.47 368.67,59.01C368.75,59.54 368.55,60.51 368.55,60.94C368.56,61.38 368.61,61.45 368.70,61.63C368.79,61.82 368.76,61.84 369.09,62.04C369.42,62.24 370.28,62.53 370.66,62.82C371.04,63.11 371.19,63.40 371.36,63.79C371.53,64.17 371.63,64.66 371.66,65.13C371.69,65.59 371.62,66.20 371.53,66.60C371.44,67.00 371.49,66.95 371.13,67.51C370.78,68.08 369.72,69.44 369.39,70.00C369.06,70.56 369.15,70.62 369.13,70.87C369.12,71.12 369.12,71.28 369.30,71.49C369.47,71.69 369.35,71.70 370.17,72.11C371.00,72.53 373.20,73.58 374.25,73.97C375.30,74.37 375.73,74.39 376.50,74.50C377.27,74.62 377.90,74.70 378.88,74.67C379.85,74.64 381.23,74.57 382.38,74.33C383.52,74.08 384.67,73.48 385.75,73.18C386.83,72.88 388.15,72.73 388.84,72.53C389.52,72.33 388.90,72.65 389.86,71.98C390.81,71.31 393.76,69.07 394.57,68.51C395.39,67.95 394.76,68.52 394.75,68.62C394.74,68.71 394.93,68.58 394.52,69.07C394.11,69.56 392.69,70.99 392.29,71.55C391.89,72.12 392.05,72.25 392.10,72.47C392.16,72.68 392.38,72.80 392.63,72.86C392.89,72.93 393.28,72.92 393.63,72.85C393.98,72.78 394.38,72.64 394.73,72.45C395.08,72.26 395.44,72.00 395.74,71.71C396.03,71.43 396.29,71.11 396.52,70.72C396.76,70.33 397.00,70.08 397.15,69.37C397.30,68.67 397.32,67.17 397.41,66.50C397.51,65.83 397.22,66.48 397.73,65.38C398.24,64.27 399.90,61.45 400.48,59.88C401.06,58.30 400.99,56.74 401.21,55.94C401.44,55.14 401.35,55.48 401.82,55.08C402.30,54.67 403.46,54.04 404.05,53.51C404.64,52.97 405.02,52.43 405.36,51.87C405.71,51.31 405.98,50.56 406.10,50.14C406.22,49.72 406.14,49.58 406.10,49.35C406.06,49.13 406.00,48.97 405.84,48.79Z" fill="#F4AF8A"/><path d="M399.18,134.79C399.10,134.49 398.91,134.35 398.67,134.19C398.43,134.03 398.48,133.98 397.72,133.84C396.97,133.70 394.95,133.42 394.13,133.35C393.31,133.29 393.16,133.37 392.80,133.46C392.44,133.54 392.40,133.56 391.96,133.88C391.53,134.20 390.86,135.07 390.18,135.37C389.50,135.66 388.35,135.57 387.87,135.66C387.40,135.75 387.52,135.67 387.33,135.90C387.15,136.13 386.84,136.60 386.76,137.03C386.68,137.46 386.72,138.03 386.86,138.48C386.99,138.94 387.24,139.44 387.56,139.75C387.88,140.06 387.73,140.30 388.78,140.37C389.84,140.44 392.76,140.26 393.87,140.19C394.99,140.13 394.97,140.13 395.46,139.98C395.94,139.82 396.27,139.67 396.77,139.24C397.26,138.81 398.00,137.93 398.40,137.38C398.80,136.84 399.05,136.41 399.18,135.97C399.31,135.54 399.27,135.09 399.18,134.79Z M437.78,131.28C437.64,131.03 437.47,131.05 437.23,131.03C437.00,131.00 437.02,130.91 436.36,131.15C435.70,131.38 433.95,132.12 433.28,132.44C432.60,132.76 432.73,132.53 432.31,133.05C431.89,133.57 431.35,134.83 430.74,135.57C430.12,136.31 429.01,137.00 428.62,137.47C428.23,137.93 428.38,138.07 428.41,138.36C428.44,138.64 428.63,138.97 428.78,139.19C428.94,139.40 429.11,139.52 429.34,139.65C429.57,139.77 429.57,139.89 430.14,139.94C430.71,139.99 432.00,140.04 432.75,139.95C433.50,139.85 433.94,139.66 434.62,139.34C435.31,139.02 436.38,138.37 436.86,138.03C437.33,137.68 437.31,137.56 437.45,137.27C437.60,136.97 437.63,137.02 437.73,136.23C437.84,135.44 438.08,133.35 438.09,132.53C438.10,131.70 437.92,131.53 437.78,131.28Z" fill="#3E4643"/><path d="M404.96,41.62C404.85,40.69 404.55,38.69 404.26,37.50C403.96,36.31 403.53,35.29 403.20,34.50C402.87,33.71 402.65,33.35 402.28,32.75C401.92,32.15 401.79,31.80 401.01,30.91C400.23,30.02 398.22,28.15 397.60,27.41C396.97,26.67 397.32,26.96 397.25,26.48C397.19,26.01 397.27,25.00 397.21,24.54C397.16,24.08 397.04,23.92 396.90,23.72C396.76,23.51 396.58,23.40 396.39,23.30C396.19,23.20 396.20,23.10 395.73,23.11C395.25,23.11 394.01,23.32 393.53,23.34C393.05,23.36 393.08,23.34 392.84,23.25C392.61,23.16 392.51,23.14 392.11,22.82C391.71,22.49 390.91,21.61 390.44,21.29C389.98,20.98 389.64,20.93 389.33,20.93C389.02,20.93 388.90,20.96 388.57,21.27C388.23,21.58 387.65,22.47 387.31,22.78C386.98,23.08 387.53,23.20 386.54,23.09C385.55,22.97 382.63,22.20 381.38,22.06C380.12,21.92 379.89,22.14 379.00,22.27C378.11,22.40 376.96,22.84 376.01,22.84C375.07,22.84 374.03,22.33 373.34,22.27C372.65,22.21 372.68,22.24 371.87,22.49C371.07,22.75 369.74,23.10 368.52,23.81C367.29,24.52 365.85,25.89 364.50,26.73C363.14,27.57 361.53,28.20 360.38,28.84C359.24,29.47 358.35,30.04 357.62,30.54C356.90,31.04 356.60,31.22 356.05,31.85C355.50,32.47 354.64,33.69 354.34,34.29C354.04,34.89 354.08,34.96 354.24,35.47C354.40,35.97 355.11,36.90 355.29,37.32C355.48,37.74 355.72,37.29 355.36,38.01C355.01,38.73 353.64,40.73 353.16,41.63C352.68,42.52 352.63,42.88 352.49,43.37C352.35,43.87 352.32,44.29 352.31,44.61C352.31,44.93 352.38,45.09 352.47,45.30C352.56,45.52 352.45,45.58 352.86,45.90C353.26,46.21 354.47,46.73 354.91,47.19C355.35,47.65 355.32,48.33 355.50,48.67C355.67,49.01 355.61,49.00 355.96,49.22C356.32,49.44 357.09,49.84 357.63,50.00C358.16,50.17 358.78,50.23 359.15,50.21C359.53,50.20 359.53,50.23 359.90,49.89C360.27,49.55 360.99,48.57 361.38,48.19C361.78,47.80 362.02,47.67 362.30,47.58C362.57,47.49 362.66,47.45 363.02,47.64C363.39,47.84 364.05,48.55 364.48,48.74C364.92,48.94 365.24,48.88 365.63,48.82C366.03,48.76 366.46,48.59 366.87,48.40C367.28,48.21 367.42,48.23 368.08,47.68C368.74,47.13 370.24,45.54 370.81,45.10C371.38,44.67 371.06,44.96 371.51,45.06C371.96,45.17 372.97,45.66 373.50,45.74C374.04,45.82 374.30,45.73 374.75,45.55C375.20,45.37 375.65,45.14 376.23,44.66C376.82,44.18 377.82,43.07 378.28,42.66C378.73,42.26 378.74,42.32 378.95,42.25C379.17,42.18 379.14,42.14 379.56,42.25C379.99,42.36 380.96,42.84 381.51,42.92C382.06,43.00 382.40,42.90 382.87,42.72C383.34,42.53 383.75,42.28 384.33,41.81C384.91,41.33 385.89,40.23 386.35,39.86C386.81,39.48 386.84,39.53 387.07,39.56C387.30,39.59 387.26,39.29 387.73,40.03C388.20,40.76 389.24,42.95 389.91,43.99C390.59,45.03 391.05,45.54 391.79,46.26C392.54,46.99 393.74,47.91 394.38,48.35C395.01,48.80 395.25,48.82 395.62,48.94C395.99,49.05 396.24,49.13 396.58,49.07C396.92,49.00 397.27,48.99 397.67,48.53C398.06,48.07 398.58,46.84 398.96,46.31C399.33,45.78 399.55,45.61 399.93,45.37C400.31,45.12 400.61,44.99 401.25,44.82C401.89,44.66 403.26,44.53 403.79,44.39C404.32,44.26 404.24,44.25 404.43,44.03C404.62,43.81 404.82,43.48 404.91,43.08C405.00,42.68 405.07,42.55 404.96,41.62Z" fill="#6F4025"/><ellipse cx="403.6" cy="49.6" rx="3.3" ry="4.3" transform="rotate(12 403.6 49.6)" fill="#F4AF8A"/><path d="M403,47.4 Q405.4,48.4 404.2,51.4" stroke="#E39577" stroke-width="0.9" stroke-linecap="round" fill="none"/><circle cx="390.2" cy="57.8" r="3.7" fill="#EE9479" opacity="0.85"/><ellipse cx="383.4" cy="53.6" rx="1.15" ry="1.5" fill="#2D261A"/><path d="M380.4,48.2 Q382.6,46.4 385,47.6" stroke="#6F4025" stroke-width="1" stroke-linecap="round" fill="none"/><path d="M373,55 C374.4,56.9 374.3,60 375.3,62 C375.9,63.1 377,63 377.6,62.2" stroke="#6F4025" stroke-width="1.05" stroke-linecap="round" stroke-linejoin="round" fill="none"/><path d="M377.6,65.6 Q381,68.9 385.2,64" stroke="#5A321C" stroke-width="1.1" stroke-linecap="round" fill="none"/><g transform="rotate(-20 356 65.6)"><ellipse cx="356" cy="65.6" rx="11.5" ry="17" fill="#353D3C"/><ellipse cx="356" cy="65.6" rx="8.8" ry="14.2" fill="#D1EAEF"/></g><path d="M350.2,58.4 C348.4,61.6 348.6,65.4 350.6,68.4" stroke="#FFFFFF" stroke-width="1.7" stroke-linecap="round" fill="none" opacity="0.95"/></svg>
